<svg width="27" height="26" viewBox="0 0 27 26" fill="none" xmlns="http://www.w3.org/2000/svg">
<path d="M13.1558 0C12.1049 0 11.0881 0.133233 10.1083 0.360625L10.5714 0.656728L12.396 0.908249L13.2383 0.725438L14.8152 0.913496L15.1315 1.32526L14.0333 1.18232L12.9105 1.6392L13.2329 2.45827L14.3929 2.9731L14.5476 1.93635L15.6474 1.86764L17.2143 3.32953L17.6584 3.90128L17.8693 4.26663L16.6527 4.73531L14.8149 5.54888L14.6643 6.34539L13.4483 7.46529L13.4955 8.53955L13.1274 8.53614L12.9805 7.62527L12.2834 7.40287L10.2796 7.50594L9.47191 8.95001L10.1741 9.77275L11.334 9.15458L11.4132 10.1612L11.8579 10.5039L12.6524 11.3952L12.6131 12.5206L14.0801 12.8571L15.1556 12.103L15.647 12.2628L17.4511 12.9662L19.9832 13.8933L20.5103 15.1294L22.3134 15.987L22.7249 17.4987L21.4947 18.8429L20.0442 20.3279L18.5065 21.1049L16.9241 22.1346L14.8149 23.4741L13.6469 24.6349L13.2327 24.1948L14.1697 21.8752L14.4063 19.1864L12.389 17.3959L12.4022 15.8894L12.9297 15.2713L13.5492 13.4815L12.2974 12.7986L11.453 11.4597L10.1335 10.9643L8.06519 9.87584L7.22127 7.60902L6.79971 8.74203L6.16683 6.88829L6.37762 4.1069L7.43232 3.17978L7.11601 2.5616L7.85388 1.42859L6.41601 1.83013C2.57795 4.07386 0 8.16266 0 12.8497C0 19.9457 5.88974 25.6994 13.1558 25.6994C20.4206 25.6994 26.3111 19.9457 26.3111 12.8497C26.3111 5.75293 20.4206 0 13.1558 0Z" fill="url(#paint0_linear_11_3)"/>
<defs>
<linearGradient id="paint0_linear_11_3" x1="-7.31395" y1="3.68497" x2="30.5645" y2="23.7643" gradientUnits="userSpaceOnUse">
<stop stop-color="#B1884C"/>
<stop offset="0.0901961" stop-color="#785C44"/>
<stop offset="0.470588" stop-color="#FFCD4B"/>
<stop offset="0.580392" stop-color="#FFCD4B"/>
<stop offset="1" stop-color="#785D35"/>
</linearGradient>
</defs>
</svg>
