<svg width="26" height="26" viewBox="0 0 26 26" fill="none" xmlns="http://www.w3.org/2000/svg">
<path d="M12.9999 16.6108C14.197 16.6108 15.1666 15.8026 15.1666 14.8059C15.1666 13.8093 14.197 13 12.9999 13C11.8028 13 10.8333 12.1918 10.8333 11.1941C10.8333 10.1974 11.8028 9.38925 12.9999 9.38925M12.9999 16.6108C11.8028 16.6108 10.8333 15.8026 10.8333 14.8059M12.9999 16.6108V17.3333M12.9999 9.38925V8.66667M12.9999 9.38925C14.197 9.38925 15.1666 10.1974 15.1666 11.1941" stroke="black" stroke-width="1.5" stroke-linecap="round"/>
<path d="M18.4166 3.61617C16.7705 2.66381 14.9017 2.16374 13 2.16667C7.01671 2.16667 2.16663 7.01675 2.16663 13C2.16663 14.7333 2.57396 16.3713 3.29654 17.8241C3.48938 18.2098 3.55329 18.6507 3.44171 19.0678L2.79713 21.4793C2.73352 21.7178 2.73376 21.9689 2.79782 22.2074C2.86188 22.4459 2.9875 22.6633 3.16209 22.8379C3.33668 23.0125 3.55411 23.1381 3.79257 23.2021C4.03102 23.2662 4.28213 23.2664 4.52071 23.2028L6.93221 22.5583C7.35082 22.4529 7.79349 22.5041 8.17696 22.7023C9.67513 23.4484 11.3263 23.8356 13 23.8333C18.9832 23.8333 23.8333 18.9833 23.8333 13C23.8333 11.0273 23.3057 9.17584 22.3838 7.58334" stroke="black" stroke-width="1.5" stroke-linecap="round"/>
</svg>
