<svg width="213" height="213" viewBox="0 0 213 213" fill="none" xmlns="http://www.w3.org/2000/svg">
<path d="M115.066 97.8375C97.9338 92.1588 89.6562 88.5975 89.6562 79.55C89.6562 69.7325 100.34 66.1712 107.078 66.1712C119.686 66.1712 124.306 75.7 125.365 79.0687L140.572 72.62C139.129 68.2887 132.68 54.14 116.125 51.06V39.125H96.875V51.2525C73.005 56.6425 72.9088 78.78 72.9088 79.7425C72.9088 101.591 94.565 107.751 105.152 111.601C120.36 116.991 127.098 121.9 127.098 131.14C127.098 142.016 116.991 146.636 108.04 146.636C90.5225 146.636 85.5175 128.637 84.94 126.52L68.9625 132.969C75.0263 154.048 90.9075 159.726 96.875 161.459V173.875H116.125V161.94C119.975 161.074 144.037 156.261 144.037 130.947C144.037 117.569 138.166 105.826 115.066 97.8375ZM19.875 193.125H0.625V135.375H58.375V154.625H34.505C50.0013 177.821 76.47 193.125 106.5 193.125C129.474 193.125 151.508 183.998 167.753 167.753C183.998 151.508 193.125 129.474 193.125 106.5H212.375C212.375 165.02 165.02 212.375 106.5 212.375C70.695 212.375 39.0287 194.569 19.875 167.426V193.125ZM0.625 106.5C0.625 47.98 47.98 0.625 106.5 0.625C142.305 0.625 173.971 18.4312 193.125 45.5737V19.875H212.375V77.625H154.625V58.375H178.495C162.999 35.1787 136.53 19.875 106.5 19.875C83.5256 19.875 61.4922 29.0015 45.2469 45.2469C29.0015 61.4922 19.875 83.5256 19.875 106.5H0.625Z" fill="url(#paint0_linear_7_72)"/>
<defs>
<linearGradient id="paint0_linear_7_72" x1="-58.2372" y1="30.9872" x2="249.711" y2="190.435" gradientUnits="userSpaceOnUse">
<stop stop-color="#B1884C"/>
<stop offset="0.0901961" stop-color="#785C44"/>
<stop offset="0.470588" stop-color="#FFCD4B"/>
<stop offset="0.580392" stop-color="#FFCD4B"/>
<stop offset="1" stop-color="#785D35"/>
</linearGradient>
</defs>
</svg>
