<?xml version="1.0" encoding="UTF-8"?>
<!DOCTYPE svg PUBLIC "-//W3C//DTD SVG 1.1//EN" "http://www.w3.org/Graphics/SVG/1.1/DTD/svg11.dtd">
<!-- Creator: CorelDRAW -->
<svg xmlns="http://www.w3.org/2000/svg" xml:space="preserve" width="82.8139mm" height="18.6263mm" version="1.1" style="shape-rendering:geometricPrecision; text-rendering:geometricPrecision; image-rendering:optimizeQuality; fill-rule:evenodd; clip-rule:evenodd"
viewBox="0 0 5852.35 1316.3"
 xmlns:xlink="http://www.w3.org/1999/xlink"
 xmlns:xodm="http://www.corel.com/coreldraw/odm/2003">
 <defs>
  <style type="text/css">
   <![CDATA[
    .fil0 {fill:#FEC456;fill-rule:nonzero}
    .fil1 {fill:#FEC456;fill-rule:nonzero}
   ]]>
  </style>
 </defs>
 <g id="Camada_x0020_1">
  <metadata id="CorelCorpID_0Corel-Layer"/>
  <g id="_2787155027616">
   <path class="fil0" d="M441.45 328.9c-35.26,0 -69.38,4.58 -102.26,12.4l15.54 10.17 61.23 8.64 28.26 -6.28 52.92 6.46 10.61 14.15 -36.85 -4.91 -37.67 15.7 10.82 28.14 38.92 17.68 5.19 -35.62 36.91 -2.36 52.58 50.22 14.9 19.64 7.07 12.56 -40.83 16.1 -61.67 27.95 -5.06 27.36 -40.8 38.47 1.59 36.9 -12.35 -0.11 -4.93 -31.29 -23.39 -7.64 -67.23 3.54 -27.1 49.61 23.56 28.26 38.92 -21.24 2.66 34.58 14.92 11.78 26.66 30.61 -1.31 38.66 49.23 11.56 36.09 -25.91 16.49 5.49 60.53 24.16 84.96 31.85 17.7 42.46 60.5 29.46 13.81 51.93 -41.28 46.17 -48.68 51.02 -51.6 26.7 -53.1 35.37 -70.77 46.01 -39.19 39.89 -13.9 -15.12 31.44 -79.69 7.94 -92.37 -67.69 -61.51 0.44 -51.75 17.7 -21.24 20.79 -61.49 -42.01 -23.46 -28.34 -45.99 -44.27 -17.02 -69.4 -37.39 -28.32 -77.87 -14.15 38.92 -21.24 -63.69 7.07 -95.55 35.39 -31.85 -10.61 -21.24 24.76 -38.92 -48.25 13.79c-128.79,77.08 -215.29,217.55 -215.29,378.56 0,243.77 197.63,441.44 441.45,441.44 243.77,0 441.43,-197.67 441.43,-441.44 0,-243.8 -197.66,-441.44 -441.43,-441.44z"/>
   <rect class="fil0" x="1036.76" y="125.38" width="46.78" height="1190.92"/>
   <path class="fil0" d="M5730.51 0c36.68,0 66.16,10.92 88.43,32.75 22.27,21.4 33.41,50.44 33.41,87.12 0,36.25 -11.58,65.71 -34.71,88.43 -23.14,22.71 -53.93,34.06 -92.36,34.06 -37.99,0 -67.69,-10.92 -89.08,-32.75 -21.4,-22.27 -32.1,-51.52 -32.1,-87.77 0,-36.25 11.79,-65.5 35.37,-87.78 24.02,-22.7 54.37,-34.06 91.05,-34.06zm-3.27 227.94c33.62,0 60.04,-9.6 79.25,-28.82 19.65,-19.21 29.48,-45.41 29.48,-78.6 0,-33.19 -10.04,-59.16 -30.13,-77.94 -20.08,-19.21 -46.06,-28.83 -77.95,-28.83 -31.44,0 -57.2,9.83 -77.29,29.48 -19.65,19.65 -29.48,46.07 -29.48,79.26 0,33.19 9.38,59.16 28.17,77.94 18.78,18.35 44.75,27.51 77.95,27.51z"/>
   <path class="fil1" d="M1223.76 861.04l0 -562.35 242.11 0c137.56,0 206.42,55.23 206.42,165.67 0,111.57 -76.44,167.36 -229.46,167.36l-56.35 0 0 229.33 -162.71 0zm162.71 -281.6l36.68 0c59.3,0 88.95,-39.34 88.95,-117.89 0,-73.77 -29.65,-110.59 -88.95,-110.59l-36.68 0 0 228.48z"/>
   <path id="_1" class="fil1" d="M1956.41 289.42c163.7,0 245.49,96.82 245.49,290.45 0,193.63 -83.33,290.45 -249.98,290.45 -166.65,0 -249.98,-99.06 -249.98,-297.05 0,-189.28 84.87,-283.85 254.47,-283.85zm-4.49 44.68c-30.77,0 -51.71,17 -62.53,50.87 -10.82,33.86 -16.3,98.78 -16.3,194.9 0,96.12 5.48,161.03 16.3,194.9 10.82,33.86 31.76,50.87 62.53,50.87 30.78,0 51.71,-17 62.53,-50.87 10.82,-33.86 16.3,-98.78 16.3,-194.9 0,-95.83 -5.48,-160.75 -16.3,-194.76 -10.83,-34.01 -31.76,-51.01 -62.53,-51.01zm-18.55 -80.1l-35.4 0 58.45 -109.6 118.18 0 -141.22 109.6z"/>
   <path id="_2" class="fil1" d="M2527.2 861.04l0 -562.35 232.7 0c165.24,0 247.87,93.87 247.87,281.74 0,187.02 -85.57,280.61 -256.87,280.61l-223.7 0zm162.71 -46.37l42.86 0c39.07,0 66.18,-17 81.22,-50.87 15.03,-34.01 22.62,-95.41 22.62,-184.22 0,-88.66 -7.45,-150.07 -22.34,-183.8 -14.9,-33.86 -42.16,-50.73 -81.5,-50.73l-42.86 0 0 469.61z"/>
   <polygon id="_3" class="fil1" points="3443.93,298.69 3443.93,355.18 3242.43,355.18 3242.43,525.48 3411.89,525.48 3411.89,581.97 3242.43,581.97 3242.43,804.56 3478.49,804.56 3478.49,861.04 3079.7,861.04 3079.7,298.69 "/>
   <path id="_4" class="fil1" d="M4011.61 289.42c163.7,0 245.49,96.82 245.49,290.45 0,193.63 -83.33,290.45 -249.98,290.45 -166.65,0 -249.98,-99.06 -249.98,-297.05 0,-189.28 84.87,-283.85 254.47,-283.85zm-4.49 44.68c-30.77,0 -51.71,17 -62.53,50.87 -10.82,33.86 -16.3,98.78 -16.3,194.9 0,96.12 5.48,161.03 16.3,194.9 10.82,33.86 31.76,50.87 62.53,50.87 30.78,0 51.71,-17 62.53,-50.87 10.82,-33.86 16.3,-98.78 16.3,-194.9 0,-95.83 -5.48,-160.75 -16.3,-194.76 -10.83,-34.01 -31.76,-51.01 -62.53,-51.01z"/>
   <path id="_5" class="fil1" d="M4752 298.69l0 377.58c0,129.42 -71.52,194.05 -214.57,194.05 -142.48,0 -213.72,-64.63 -213.72,-194.05l0 -377.58 162.71 0 0 382.49c0,49.47 7.02,83.19 21.22,101.32 14.19,18.13 40.32,27.12 78.55,27.12 74.05,0 111.01,-44.4 111.01,-133.34l0 -377.58 54.8 0z"/>
   <path id="_6" class="fil1" d="M4840.53 861.04l0 -562.35 241.4 0c62.81,0 113.12,13.21 150.64,39.77 37.66,26.56 56.49,62.11 56.49,106.79 0,68.15 -40.32,112.7 -121.13,133.21 41.45,15.46 68.29,32.32 80.52,50.59 12.23,18.4 20.52,54.1 24.87,106.93 5.2,63.09 15.74,104.83 31.62,125.06l-176.91 0c-11.24,-26 -16.86,-58.6 -16.86,-97.52l-0.84 -33.31 -0.84 -41.87c0,-64.78 -26.14,-97.1 -78.27,-97.1l-27.96 0 0 269.79 -162.71 0zm162.71 -316.16l32.88 0c61.83,0 92.75,-32.32 92.75,-96.96 0,-64.64 -30.92,-96.96 -92.75,-96.96l-32.88 0 0 193.91z"/>
   <path id="_7" class="fil1" d="M5602.41 289.42c163.7,0 245.49,96.82 245.49,290.45 0,193.63 -83.33,290.45 -249.98,290.45 -166.65,0 -249.98,-99.06 -249.98,-297.05 0,-189.28 84.87,-283.85 254.47,-283.85zm-4.49 44.68c-30.77,0 -51.71,17 -62.53,50.87 -10.82,33.86 -16.3,98.78 -16.3,194.9 0,96.12 5.48,161.03 16.3,194.9 10.82,33.86 31.76,50.87 62.53,50.87 30.78,0 51.71,-17 62.53,-50.87 10.82,-33.86 16.3,-98.78 16.3,-194.9 0,-95.83 -5.48,-160.75 -16.3,-194.76 -10.83,-34.01 -31.76,-51.01 -62.53,-51.01z"/>
   <polygon class="fil1" points="4415.55,1019.61 4415.55,1045.85 4351.71,1045.85 4351.71,1280.83 4271.43,1280.83 4271.43,1045.85 4206.81,1045.85 4206.81,1019.61 "/>
   <path id="_1_0" class="fil1" d="M4435.52 1280.83l0 -261.22 112.14 0c29.18,0 52.55,6.13 69.98,18.47 17.49,12.34 26.24,28.85 26.24,49.61 0,31.65 -18.73,52.34 -56.27,61.88 19.26,7.18 31.72,15.01 37.4,23.5 5.68,8.55 9.53,25.13 11.55,49.67 2.42,29.31 7.31,48.69 14.68,58.09l-82.17 0c-5.22,-12.08 -7.84,-27.22 -7.84,-45.3l-0.39 -15.47 -0.39 -19.45c0,-30.09 -12.14,-45.11 -36.36,-45.11l-12.99 0 0 125.32 -75.59 0zm75.59 -146.86l15.27 0c28.72,0 43.08,-15.01 43.08,-45.04 0,-30.03 -14.36,-45.04 -43.08,-45.04l-15.27 0 0 90.07z"/>
   <path id="_2_1" class="fil1" d="M4801.38 1019.61l72.65 261.22 -76.11 0 -15.47 -56.79 -78.58 0 -16.64 56.79 -29.64 0 77.28 -261.22 66.51 0zm-90.07 178.19l64.1 0 -30.81 -115.39 -33.28 115.39z"/>
   <path id="_3_2" class="fil1" d="M4894.64 1280.83l0 -261.22 108.09 0c76.76,0 115.14,43.6 115.14,130.87 0,86.88 -39.75,130.35 -119.32,130.35l-103.91 0zm75.59 -21.54l19.91 0c18.15,0 30.74,-7.9 37.73,-23.63 6.98,-15.79 10.51,-44.32 10.51,-85.57 0,-41.19 -3.46,-69.71 -10.38,-85.37 -6.92,-15.73 -19.58,-23.57 -37.86,-23.57l-19.91 0 0 218.14z"/>
   <polygon id="_4_3" class="fil1" points="5227.27,1019.61 5227.27,1280.83 5151.69,1280.83 5151.69,1019.61 "/>
   <polygon id="_5_4" class="fil1" points="5463.63,1019.61 5463.63,1280.83 5405.66,1280.83 5296.79,1115.69 5296.79,1280.83 5271.34,1280.83 5271.34,1019.61 5319.31,1019.61 5438.17,1198.26 5438.17,1019.61 "/>
   <path id="_6_5" class="fil1" d="M5609.18 1139.84l107.7 0 0 140.98 -24.08 0 -8.23 -17.95c-21.02,14.82 -43.28,22.26 -66.77,22.26 -38.71,0 -68.73,-11.55 -90.14,-34.73 -21.35,-23.11 -32.05,-55.74 -32.05,-97.78 0,-40.92 11.36,-74.08 34.01,-99.35 22.65,-25.33 52.28,-37.98 88.9,-37.98 48.23,0 77.61,24.67 88.05,74.02l-35.51 16.18 0 -6.33 -0.59 -14.1c-2.42,-30.88 -16.71,-46.27 -42.75,-46.27 -19.19,0 -32.31,8.16 -39.29,24.47 -7.05,16.32 -10.58,46.74 -10.58,91.25 0,41.57 2.88,69.84 8.55,84.72 5.68,14.95 16.52,22.39 32.57,22.39 18.8,0 28.2,-10.44 28.2,-31.33l0 -64.22 -37.98 0 0 -26.24z"/>
   <path class="fil1" d="M5680.19 185.58l0 -134.74 57.84 0c15.05,0 27.1,3.17 36.09,9.53 9.02,6.36 13.53,14.88 13.53,25.59 0,16.32 -9.66,27 -29.02,31.91 9.94,3.7 16.37,7.75 19.29,12.12 2.93,4.41 4.92,12.97 5.96,25.62 1.24,15.12 3.77,25.12 7.58,29.96l-42.39 0c-2.69,-6.23 -4.04,-14.04 -4.04,-23.36l-0.2 -7.98 -0.2 -10.03c0,-15.52 -6.27,-23.26 -18.76,-23.26l-6.7 0 0 64.64 -38.99 0zm38.99 -75.75l7.88 0c14.81,0 22.22,-7.75 22.22,-23.24 0,-15.48 -7.41,-23.23 -22.22,-23.23l-7.88 0 0 46.46z"/>
  </g>
 </g>
</svg>
