<svg width="148" height="35" viewBox="0 0 148 35" fill="none" xmlns="http://www.w3.org/2000/svg">
<path d="M13.1558 5.13986C12.1049 5.13986 11.0881 5.27309 10.1083 5.50049L10.5714 5.79659L12.396 6.04811L13.2383 5.8653L14.8152 6.05336L15.1315 6.46512L14.0333 6.32218L12.9105 6.77906L13.2329 7.59813L14.3929 8.11297L14.5476 7.07621L15.6474 7.0075L17.2143 8.46939L17.6584 9.04114L17.8693 9.40649L16.6527 9.87517L14.8149 10.6887L14.6643 11.4853L13.4483 12.6052L13.4955 13.6794L13.1274 13.676L12.9805 12.7651L12.2834 12.5427L10.2796 12.6458L9.47191 14.0899L10.1741 14.9126L11.334 14.2944L11.4132 15.301L11.8579 15.6438L12.6524 16.5351L12.6131 17.6605L14.0801 17.997L15.1556 17.2429L15.647 17.4027L17.4511 18.1061L19.9832 19.0331L20.5103 20.2692L22.3134 21.1268L22.7249 22.6386L21.4947 23.9828L20.0442 25.4678L18.5065 26.2448L16.9241 27.2745L14.8149 28.6139L13.6469 29.7748L13.2327 29.3347L14.1697 27.0151L14.4063 24.3263L12.389 22.5358L12.4022 21.0293L12.9297 20.4112L13.5492 18.6214L12.2974 17.9384L11.453 16.5996L10.1335 16.1041L8.06519 15.0157L7.22127 12.7489L6.79971 13.8819L6.16683 12.0282L6.37762 9.24676L7.43232 8.31964L7.11601 7.70147L7.85388 6.56845L6.41601 6.97C2.57795 9.21372 0 13.3025 0 17.9896C0 25.0856 5.88974 30.8393 13.1558 30.8393C20.4206 30.8393 26.3111 25.0856 26.3111 17.9896C26.3111 10.8928 20.4206 5.13986 13.1558 5.13986Z" fill="url(#paint0_linear_5_16)"/>
<path d="M32.8889 0H31.5734V34.0518H32.8889V0Z" fill="url(#paint1_linear_5_16)"/>
<path d="M38.1511 8.23997H43.5742C45.4311 8.23997 46.8145 8.50774 47.7245 9.04326C48.6345 9.56661 49.0895 10.5099 49.0895 11.873C49.0895 13.3822 48.5361 14.4228 47.4294 14.9949C46.3964 15.5182 44.9515 15.7799 43.0946 15.7799H42.947V20.6726H45.2528V21.0195H38.1511V20.6726H39.3501V8.58685H38.1511V8.23997ZM42.947 8.58685V15.433H43.3344C44.0722 15.433 44.5826 15.1835 44.8654 14.6845C45.1483 14.1855 45.2897 13.3761 45.2897 12.2564V11.3801C45.2897 10.3455 45.1544 9.62138 44.8839 9.20757C44.6256 8.79375 44.146 8.58685 43.4451 8.58685H42.947ZM58.6264 15.3782V14.0273C58.6264 11.8 58.5157 10.3942 58.2944 9.81003C58.0484 9.14062 57.698 8.72681 57.243 8.56859C56.9847 8.47122 56.6712 8.42254 56.3022 8.42254C55.9333 8.42254 55.6136 8.47122 55.3431 8.56859C55.0848 8.66596 54.8696 8.83635 54.6974 9.07977C54.5253 9.32319 54.3839 9.57878 54.2732 9.84654C54.1748 10.1143 54.0949 10.4916 54.0334 10.9784C53.9596 11.6844 53.9227 12.725 53.9227 14.1003V15.4148C53.9227 16.8996 53.9781 17.9585 54.0887 18.5914C54.2117 19.2121 54.3593 19.6563 54.5314 19.9241C54.9127 20.5205 55.5029 20.8187 56.3022 20.8187C57.2737 20.8187 57.9009 20.417 58.1837 19.6137C58.4789 18.7983 58.6264 17.3864 58.6264 15.3782ZM56.2653 21.202C54.2117 21.202 52.6746 20.6543 51.6539 19.559C50.6455 18.4514 50.1413 16.857 50.1413 14.7758C50.1413 12.6824 50.6824 11.0393 51.7646 9.84654C52.859 8.64162 54.4023 8.03915 56.3945 8.03915C58.3866 8.03915 59.8869 8.61119 60.8953 9.75526C61.9159 10.8872 62.4263 12.4998 62.4263 14.5932C62.4263 16.6866 61.9098 18.3114 60.8768 19.4677C59.8561 20.6239 58.319 21.202 56.2653 21.202ZM54.6974 7.45495L56.8187 4.49741L57.7041 4.57043C58.0116 4.59477 58.2329 4.68606 58.3682 4.84428C58.5157 5.0025 58.5895 5.18507 58.5895 5.39197C58.5895 5.87881 58.319 6.23177 57.7779 6.45084L54.845 7.63751L54.6974 7.45495ZM79.6684 14.4106C79.6684 16.9179 78.9551 18.6644 77.5286 19.6502C76.2128 20.5631 74.4051 21.0195 72.1056 21.0195H66.8854V20.6726H68.1028V8.58685H66.8854V8.23997H72.5851C74.9462 8.23997 76.717 8.72073 77.8975 9.68223C79.0781 10.6316 79.6684 12.2077 79.6684 14.4106ZM71.6997 20.6726H72.4007C73.6427 20.6726 74.5281 20.2405 75.0569 19.3764C75.598 18.5001 75.8685 17.0396 75.8685 14.9949V13.936C75.8685 11.1975 75.3397 9.54835 74.2822 8.98849C73.778 8.72073 73.0647 8.58685 72.1424 8.58685H71.6997V20.6726ZM80.8099 8.23997H90.4017L90.586 11.8547H90.2542C89.7377 10.6255 89.1966 9.78569 88.6309 9.33536C88.0653 8.87286 87.2352 8.64162 86.1407 8.64162H85.4951V14.2829H86.1223C86.7003 14.2829 87.186 14.0699 87.5795 13.6439C87.973 13.2057 88.2497 12.6215 88.4096 11.8913H88.6863V17.2952H88.3727C88.1513 16.3823 87.8501 15.7312 87.4688 15.3417C87.0999 14.9523 86.5896 14.7575 85.9378 14.7575H85.4951V20.6178H86.1961C87.3274 20.6178 88.2866 20.2831 89.0736 19.6137C89.873 18.9443 90.4202 18.0863 90.7153 17.0396H91.0842L90.9367 21.0195H80.8099V20.6178H81.8982V8.64162H80.8099V8.23997ZM104.489 15.3782V14.0273C104.489 11.8 104.378 10.3942 104.157 9.81003C103.911 9.14062 103.561 8.72681 103.106 8.56859C102.847 8.47122 102.534 8.42254 102.165 8.42254C101.796 8.42254 101.476 8.47122 101.206 8.56859C100.947 8.66596 100.732 8.83635 100.56 9.07977C100.388 9.32319 100.246 9.57878 100.136 9.84654C100.037 10.1143 99.9575 10.4916 99.896 10.9784C99.8222 11.6844 99.7853 12.725 99.7853 14.1003V15.4148C99.7853 16.8996 99.8406 17.9585 99.9513 18.5914C100.074 19.2121 100.222 19.6563 100.394 19.9241C100.775 20.5205 101.365 20.8187 102.165 20.8187C103.136 20.8187 103.763 20.417 104.046 19.6137C104.341 18.7983 104.489 17.3864 104.489 15.3782ZM102.128 21.202C100.074 21.202 98.5371 20.6543 97.5165 19.559C96.5081 18.4514 96.0039 16.857 96.0039 14.7758C96.0039 12.6824 96.545 11.0393 97.6271 9.84654C98.7216 8.64162 100.265 8.03915 102.257 8.03915C104.249 8.03915 105.749 8.61119 106.758 9.75526C107.779 10.8872 108.289 12.4998 108.289 14.5932C108.289 16.6866 107.772 18.3114 106.739 19.4677C105.719 20.6239 104.182 21.202 102.128 21.202ZM113.865 17.1309C113.865 18.2506 114.055 19.1086 114.437 19.705C114.83 20.3014 115.531 20.5996 116.539 20.5996C117.548 20.5996 118.322 20.2892 118.864 19.6685C119.405 19.0478 119.675 18.1045 119.675 16.8388V8.58685H118.476V8.23997H121.169V8.58685H120.155V16.711C120.155 18.2202 119.817 19.346 119.14 20.0884C118.464 20.8308 117.265 21.202 115.543 21.202C113.834 21.202 112.524 20.8491 111.614 20.1432C110.717 19.4373 110.268 18.2262 110.268 16.5101V8.58685H109.253V8.23997H115.064V8.58685H113.865V17.1309ZM127.508 14.5567H126.53V20.6726H127.729V21.0195H121.734V20.6726H122.933V8.58685H121.734V8.23997H127.305C128.903 8.23997 130.035 8.32517 130.699 8.49556C131.375 8.65379 131.848 8.84852 132.119 9.07977C132.709 9.55444 133.004 10.309 133.004 11.3436C133.004 12.3781 132.746 13.1205 132.23 13.5709C131.713 14.009 130.926 14.2707 129.869 14.3559V14.4106C130.865 14.5445 131.559 14.8366 131.953 15.287C132.346 15.7373 132.543 16.4919 132.543 17.5508V18.5183C132.543 19.1512 132.574 19.5772 132.635 19.7963C132.709 20.0154 132.857 20.1249 133.078 20.1249C133.3 20.1249 133.472 20.0275 133.595 19.8328C133.73 19.6259 133.853 19.1999 133.964 18.5549L134.277 18.5914C134.142 19.6259 133.902 20.3196 133.558 20.6726C133.226 21.0256 132.556 21.202 131.547 21.202C130.539 21.202 129.819 20.9708 129.389 20.5083C128.971 20.0336 128.762 19.1512 128.762 17.8611V16.5284C128.762 15.8468 128.67 15.3478 128.485 15.0314C128.313 14.7149 127.987 14.5567 127.508 14.5567ZM126.53 8.58685V14.2098H127.12C127.821 14.2098 128.338 13.9968 128.67 13.5709C129.014 13.1449 129.186 12.4511 129.186 11.4896V10.9602C129.186 9.99868 129.02 9.36579 128.688 9.06151C128.368 8.74507 127.852 8.58685 127.139 8.58685H126.53ZM143.542 15.3782V14.0273C143.542 11.8 143.432 10.3942 143.21 9.81003C142.964 9.14062 142.614 8.72681 142.159 8.56859C141.901 8.47122 141.587 8.42254 141.218 8.42254C140.849 8.42254 140.53 8.47122 140.259 8.56859C140.001 8.66596 139.786 8.83635 139.613 9.07977C139.441 9.32319 139.3 9.57878 139.189 9.84654C139.091 10.1143 139.011 10.4916 138.949 10.9784C138.876 11.6844 138.839 12.725 138.839 14.1003V15.4148C138.839 16.8996 138.894 17.9585 139.005 18.5914C139.128 19.2121 139.275 19.6563 139.447 19.9241C139.829 20.5205 140.419 20.8187 141.218 20.8187C142.19 20.8187 142.817 20.417 143.1 19.6137C143.395 18.7983 143.542 17.3864 143.542 15.3782ZM141.181 21.202C139.128 21.202 137.59 20.6543 136.57 19.559C135.561 18.4514 135.057 16.857 135.057 14.7758C135.057 12.6824 135.598 11.0393 136.681 9.84654C137.775 8.64162 139.318 8.03915 141.31 8.03915C143.303 8.03915 144.803 8.61119 145.811 9.75526C146.832 10.8872 147.342 12.4998 147.342 14.5932C147.342 16.6866 146.826 18.3114 145.793 19.4677C144.772 20.6239 143.235 21.202 141.181 21.202Z" fill="url(#paint2_linear_5_16)"/>
<path d="M116.068 25.7877L116.149 27.8007H115.994C115.754 27.0896 115.542 26.6057 115.357 26.349C115.171 26.0871 114.904 25.9561 114.556 25.9561H114.458V31.2332H115.152V31.4016H112.17V31.2332H112.864V25.9561H112.758C112.409 25.9561 112.14 26.0924 111.949 26.3651C111.758 26.6324 111.549 27.1109 111.32 27.8007H111.164L111.246 25.7877H116.068ZM119.129 28.5626H118.696V31.2492H119.227V31.4016H116.571V31.2492H117.102V25.94H116.571V25.7877H119.039C119.747 25.7877 120.249 25.8251 120.543 25.8999C120.842 25.9694 121.052 26.055 121.172 26.1566C121.434 26.3651 121.564 26.6966 121.564 27.151C121.564 27.6055 121.45 27.9316 121.221 28.1295C120.992 28.322 120.644 28.4369 120.175 28.4743V28.4984C120.616 28.5572 120.924 28.6855 121.098 28.8833C121.273 29.0812 121.36 29.4127 121.36 29.8778V30.3029C121.36 30.5809 121.374 30.768 121.401 30.8643C121.434 30.9605 121.499 31.0086 121.597 31.0086C121.695 31.0086 121.771 30.9659 121.826 30.8803C121.886 30.7894 121.94 30.6023 121.989 30.3189L122.128 30.335C122.068 30.7894 121.962 31.0942 121.809 31.2492C121.662 31.4043 121.365 31.4818 120.919 31.4818C120.472 31.4818 120.153 31.3802 119.963 31.1771C119.777 30.9685 119.685 30.5809 119.685 30.0142V29.4287C119.685 29.1293 119.644 28.9101 119.562 28.7711C119.486 28.6321 119.341 28.5626 119.129 28.5626ZM118.696 25.94V28.4102H118.957C119.268 28.4102 119.497 28.3166 119.644 28.1295C119.796 27.9423 119.873 27.6376 119.873 27.2152V26.9826C119.873 26.5602 119.799 26.2822 119.652 26.1485C119.51 26.0095 119.282 25.94 118.966 25.94H118.696ZM125.749 31.2492L125.152 29.5169H123.534L122.905 31.2492H123.518V31.4016H122.267V31.2492H122.652L124.735 25.7395H125.406L127.465 31.2492H127.841V31.4016H125.169V31.2492H125.749ZM124.376 27.2393L123.608 29.3405H125.087L124.376 27.2393ZM133.727 28.4984C133.727 29.5998 133.411 30.367 132.779 30.8001C132.196 31.2011 131.396 31.4016 130.377 31.4016H128.064V31.2492H128.604V25.94H128.064V25.7877H130.589C131.635 25.7877 132.42 25.9988 132.943 26.4212C133.466 26.8383 133.727 27.5307 133.727 28.4984ZM130.197 31.2492H130.508C131.058 31.2492 131.45 31.0594 131.684 30.6798C131.924 30.2949 132.044 29.6533 132.044 28.755V28.2899C132.044 27.0869 131.81 26.3624 131.341 26.1165C131.118 25.9988 130.802 25.94 130.393 25.94H130.197V31.2492ZM134.266 25.7877H136.758V25.94H136.309V31.2492H136.758V31.4016H134.266V31.2492H134.715V25.94H134.266V25.7877ZM141.788 25.94V31.4016H140.644L137.841 26.2127V31.2492H138.29V31.4016H137.171V31.2492H137.62V25.94H137.171V25.7877H139.426L141.567 29.8137V25.94H141.118V25.7877H142.237V25.94H141.788ZM145.548 31.3214C145.815 31.3214 145.984 31.2733 146.055 31.1771C146.131 31.0808 146.169 30.9177 146.169 30.6878V29.132H145.646V28.9555H148V29.132H147.681V31.3936H147.559C147.461 31.2599 147.322 31.1931 147.142 31.1931C147.066 31.1931 146.837 31.2412 146.455 31.3374C146.08 31.4337 145.758 31.4818 145.491 31.4818C144.603 31.4818 143.914 31.2466 143.424 30.7761C142.939 30.3055 142.696 29.5998 142.696 28.6588C142.696 27.7124 142.95 26.9826 143.456 26.4693C143.968 25.9561 144.655 25.6994 145.516 25.6994C145.848 25.6994 146.18 25.7422 146.513 25.8278C146.85 25.908 147.047 25.9481 147.101 25.9481C147.156 25.9481 147.196 25.9374 147.224 25.916C147.251 25.8892 147.281 25.8465 147.314 25.7877H147.403L147.469 27.528H147.322C147.055 27.0094 146.785 26.603 146.513 26.3089C146.246 26.0095 145.946 25.8598 145.614 25.8598C144.78 25.8598 144.363 26.6592 144.363 28.2578V28.8914C144.363 29.6934 144.464 30.3002 144.666 30.7119C144.873 31.1182 145.167 31.3214 145.548 31.3214Z" fill="url(#paint3_linear_5_16)"/>
<path d="M145.417 1.92746C146.195 1.92746 146.82 2.13005 147.292 2.53522C147.764 2.93229 148 3.47116 148 4.15185C148 4.82443 147.755 5.37141 147.264 5.79279C146.773 6.21418 146.121 6.42486 145.306 6.42486C144.501 6.42486 143.872 6.22227 143.418 5.8171C142.964 5.40383 142.738 4.86089 142.738 4.18832C142.738 3.51574 142.988 2.9728 143.487 2.55953C143.997 2.13814 144.64 1.92746 145.417 1.92746ZM145.348 6.15745C146.061 6.15745 146.621 5.97917 147.028 5.62262C147.445 5.26608 147.653 4.77987 147.653 4.16401C147.653 3.54814 147.44 3.066 147.014 2.71754C146.588 2.361 146.038 2.18272 145.362 2.18272C144.695 2.18272 144.149 2.36504 143.723 2.7297C143.307 3.09435 143.099 3.5846 143.099 4.20047C143.099 4.81634 143.298 5.29848 143.696 5.64693C144.094 5.98728 144.644 6.15745 145.348 6.15745ZM145.32 4.11538H145.279V5.17288H145.39V5.27012H144.015V5.17288H144.321V3.03358H144.015V2.93634H145.459C145.82 2.93634 146.084 2.9728 146.25 3.04573C146.426 3.11866 146.514 3.26452 146.514 3.48332C146.514 3.82366 146.218 4.0141 145.626 4.05461V4.06676C145.977 4.08296 146.218 4.13565 146.348 4.22478C146.477 4.30582 146.542 4.44357 146.542 4.63806V4.91762C146.542 5.04728 146.584 5.11211 146.667 5.11211C146.796 5.11211 146.88 4.97435 146.917 4.69883L147.028 4.71099C147 4.92167 146.935 5.07564 146.834 5.17288C146.732 5.26201 146.547 5.30659 146.278 5.30659C145.825 5.30659 145.598 5.15668 145.598 4.85685V4.50435C145.598 4.35038 145.579 4.24909 145.542 4.20047C145.505 4.14374 145.431 4.11538 145.32 4.11538ZM145.279 3.03358V3.99383H145.32C145.468 3.99383 145.566 3.95737 145.612 3.88444C145.658 3.81151 145.681 3.68591 145.681 3.50763C145.681 3.32935 145.658 3.2078 145.612 3.14297C145.575 3.07004 145.487 3.03358 145.348 3.03358H145.279Z" fill="url(#paint4_linear_5_16)"/>
<path d="M145.417 1.92746C146.195 1.92746 146.82 2.13005 147.292 2.53522C147.764 2.93229 148 3.47116 148 4.15185C148 4.82443 147.755 5.37141 147.264 5.79279C146.773 6.21418 146.121 6.42486 145.306 6.42486C144.501 6.42486 143.872 6.22227 143.418 5.8171C142.964 5.40383 142.738 4.86089 142.738 4.18832C142.738 3.51574 142.988 2.9728 143.487 2.55953C143.997 2.13814 144.64 1.92746 145.417 1.92746ZM145.348 6.15745C146.061 6.15745 146.621 5.97917 147.028 5.62262C147.445 5.26608 147.653 4.77987 147.653 4.16401C147.653 3.54814 147.44 3.066 147.014 2.71754C146.588 2.361 146.038 2.18272 145.362 2.18272C144.695 2.18272 144.149 2.36504 143.723 2.7297C143.307 3.09435 143.099 3.5846 143.099 4.20047C143.099 4.81634 143.298 5.29848 143.696 5.64693C144.094 5.98728 144.644 6.15745 145.348 6.15745ZM145.32 4.11538H145.279V5.17288H145.39V5.27012H144.015V5.17288H144.321V3.03358H144.015V2.93634H145.459C145.82 2.93634 146.084 2.9728 146.25 3.04573C146.426 3.11866 146.514 3.26452 146.514 3.48332C146.514 3.82366 146.218 4.0141 145.626 4.05461V4.06676C145.977 4.08296 146.218 4.13565 146.348 4.22478C146.477 4.30582 146.542 4.44357 146.542 4.63806V4.91762C146.542 5.04728 146.584 5.11211 146.667 5.11211C146.796 5.11211 146.88 4.97435 146.917 4.69883L147.028 4.71099C147 4.92167 146.935 5.07564 146.834 5.17288C146.732 5.26201 146.547 5.30659 146.278 5.30659C145.825 5.30659 145.598 5.15668 145.598 4.85685V4.50435C145.598 4.35038 145.579 4.24909 145.542 4.20047C145.505 4.14374 145.431 4.11538 145.32 4.11538ZM145.279 3.03358V3.99383H145.32C145.468 3.99383 145.566 3.95737 145.612 3.88444C145.658 3.81151 145.681 3.68591 145.681 3.50763C145.681 3.32935 145.658 3.2078 145.612 3.14297C145.575 3.07004 145.487 3.03358 145.348 3.03358H145.279Z" fill="url(#paint5_linear_5_16)"/>
<defs>
<linearGradient id="paint0_linear_5_16" x1="-7.31395" y1="8.82483" x2="30.5645" y2="28.9042" gradientUnits="userSpaceOnUse">
<stop stop-color="#B1884C"/>
<stop offset="0.0901961" stop-color="#785C44"/>
<stop offset="0.470588" stop-color="#FFCD4B"/>
<stop offset="0.580392" stop-color="#FFCD4B"/>
<stop offset="1" stop-color="#785D35"/>
</linearGradient>
<linearGradient id="paint1_linear_5_16" x1="31.2077" y1="4.88259" x2="33.6328" y2="4.9311" gradientUnits="userSpaceOnUse">
<stop stop-color="#B1884C"/>
<stop offset="0.0901961" stop-color="#785C44"/>
<stop offset="0.470588" stop-color="#FFCD4B"/>
<stop offset="0.580392" stop-color="#FFCD4B"/>
<stop offset="1" stop-color="#785D35"/>
</linearGradient>
<linearGradient id="paint2_linear_5_16" x1="7.79822" y1="6.89264" x2="23.9663" y2="61.6132" gradientUnits="userSpaceOnUse">
<stop stop-color="#B1884C"/>
<stop offset="0.0901961" stop-color="#785C44"/>
<stop offset="0.470588" stop-color="#FFCD4B"/>
<stop offset="0.580392" stop-color="#FFCD4B"/>
<stop offset="1" stop-color="#785D35"/>
</linearGradient>
<linearGradient id="paint3_linear_5_16" x1="100.925" y1="26.5286" x2="106.643" y2="45.3902" gradientUnits="userSpaceOnUse">
<stop stop-color="#B1884C"/>
<stop offset="0.0901961" stop-color="#785C44"/>
<stop offset="0.470588" stop-color="#FFCD4B"/>
<stop offset="0.580392" stop-color="#FFCD4B"/>
<stop offset="1" stop-color="#785D35"/>
</linearGradient>
<linearGradient id="paint4_linear_5_16" x1="141.275" y1="2.57233" x2="148.374" y2="6.87309" gradientUnits="userSpaceOnUse">
<stop stop-color="#B1884C"/>
<stop offset="0.0901961" stop-color="#785C44"/>
<stop offset="0.470588" stop-color="#FFCD4B"/>
<stop offset="0.580392" stop-color="#FFCD4B"/>
<stop offset="1" stop-color="#785D35"/>
</linearGradient>
<linearGradient id="paint5_linear_5_16" x1="141.275" y1="2.57233" x2="148.374" y2="6.87309" gradientUnits="userSpaceOnUse">
<stop stop-color="#B1884C"/>
<stop offset="0.0901961" stop-color="#785C44"/>
<stop offset="0.470588" stop-color="#FFCD4B"/>
<stop offset="0.580392" stop-color="#FFCD4B"/>
<stop offset="1" stop-color="#785D35"/>
</linearGradient>
</defs>
</svg>
