<svg width="475" height="234" viewBox="0 0 475 234" fill="none" xmlns="http://www.w3.org/2000/svg">
<g clip-path="url(#clip0_7_87)">
<path d="M154.596 164.093L147.384 158.374L127.102 151.067L122.145 152.972L121.694 149.479L111.328 155.195L102.481 149.912L102.764 145.665L97.3548 145.346V139.448C97.2251 140.548 96.0012 143.185 86.9881 142.169C75.7217 140.897 86.5378 128.188 88.7901 126.599C91.0435 125.011 97.8052 125.646 99.1578 124.692C100.51 123.741 105.016 127.234 105.016 127.234L107.27 132.318L109.524 132.637V125.011L118.539 122.15C118.539 122.15 118.539 119.608 118.989 117.066C119.44 114.527 128.453 109.44 128.453 109.44L141.976 107.217L139.272 102.768L134.764 101.815L136.116 98.6366L149.638 99.2731L149.187 103.721L155.497 105.31L153.244 98.002L145.581 83.3849L142.426 86.8802L137.469 86.5631L138.371 80.8433C138.371 80.8433 130.708 78.3013 127.553 78.3013C124.398 78.3013 127.102 81.1604 125.75 82.7493C124.398 84.3386 127.102 88.7866 127.102 88.7866L121.242 91.3296L121.694 96.7305L116.285 98.3184L115.834 91.3296L105.016 85.2913V78.6185L128.906 66.5444L127.102 63.3672L121.242 66.5444L118.089 54.7871C118.089 54.7871 113.58 62.095 113.129 63.3673C112.679 64.6371 96.0024 61.7791 96.0024 61.7791L87.4384 57.0116L76.6214 51.2925L62.1993 52.8807L58.5944 48.4328L39.6637 40.4891L28.8463 44.62L24.338 45.5727L23.8876 53.1988L16.2254 51.9281L14.4226 56.6945L22.0857 56.0589L21.6335 58.2824L7.21133 64.0015L13.0706 70.3573L0.000244141 79.5724L37.4095 70.0388C37.4095 70.0388 54.9873 99.9086 54.5368 100.862C54.0867 101.815 50.9301 100.862 50.9301 100.862C50.9301 100.862 46.8746 116.75 48.6767 118.02C50.4797 119.292 61.7488 135.816 61.7488 135.816L59.9447 126.599L76.1712 144.074C76.1712 144.074 95.1008 145.663 96.0023 148.526C96.8132 151.094 107.82 155.976 110.034 156.935C106.69 161.949 99.6391 176.755 124.398 186.652V227.963L133.864 234L139.723 212.39C139.723 212.39 144.68 205.402 147.384 205.72C150.089 206.037 164.964 193.011 165.413 190.15C165.864 187.29 171.723 189.515 171.723 189.515L173.076 179.029L179.385 171.084L154.596 164.093L154.596 164.093Z" fill="#F9C94A"/>
<path d="M97.355 138.992V139.447C97.3868 139.174 97.355 138.992 97.355 138.992Z" fill="#F9C94A"/>
<path d="M132.736 71.7868C132.736 71.7868 143.328 79.5721 143.328 79.0959C143.328 78.6184 150.539 72.1043 150.539 72.1043L155.046 72.4225L148.061 64.4778L149.864 61.3013C149.864 61.3013 142.652 56.058 143.103 55.1043C143.553 54.1513 136.567 55.7406 137.919 52.0869C139.272 48.4315 132.51 49.8616 132.51 49.8616L123.271 57.3288L130.483 59.0771C130.483 59.0771 139.046 57.8059 139.947 62.8905C140.848 67.974 140.172 70.674 132.736 71.7868L132.736 71.7868Z" fill="#F9C94A"/>
<path d="M92.1711 57.964L88.3402 51.1321C88.3402 51.1321 91.0437 49.0677 91.0437 48.5905C91.0437 48.1143 88.5662 47.4788 88.5662 47.4788L84.2827 48.7496L89.4665 41.2825C89.4665 41.2825 94.6507 42.0778 96.9038 43.3479C99.157 44.6187 93.0736 45.7315 95.3271 47.0013C97.5802 48.2724 100.959 46.6842 101.861 47.9553C102.764 49.2262 105.242 50.6581 105.918 49.5443C106.594 48.4315 107.27 46.2091 108.397 47.1607C109.524 48.1144 108.397 56.5341 108.397 56.5341L92.1711 57.964Z" fill="#F9C94A"/>
<path d="M119.891 74.0109L123.497 71.1512L126.651 74.3284L123.271 75.1231L119.891 74.0109Z" fill="#F9C94A"/>
<path d="M113.355 53.516L112.679 50.0218L115.158 49.8616L116.285 46.8433L119.664 47.7969L117.636 51.4506L120.566 51.768L113.355 53.516Z" fill="#F9C94A"/>
<path d="M121.468 50.9742L122.82 47.9553L127.779 48.5906L121.468 50.9742Z" fill="#F9C94A"/>
<path d="M103.439 43.6661L100.059 39.2171L107.27 36.8335L113.355 37.7868L115.158 41.4416L103.439 43.6661Z" fill="#F9C94A"/>
<path d="M128.003 39.3772L132.511 40.4889L135.891 45.4144L141.976 45.7315L140.848 47.7969L133.411 46.8433L128.906 42.5544L128.003 39.3772Z" fill="#F9C94A"/>
<path d="M136.116 41.7597L144.23 44.1436L155.949 36.6755L154.145 34.7691H161.132L174.203 28.4144C174.203 28.4144 168.43 17.6741 147.836 24.1234C145.807 24.7576 152.117 31.1144 152.117 31.1144L136.116 41.7597V41.7597Z" fill="#F9C94A"/>
<path d="M135.891 36.1979L145.131 33.8161C145.131 33.8161 145.582 25.0772 143.779 25.3947C141.976 25.7128 136.792 29.6857 136.792 29.6857L135.891 36.198V36.1979Z" fill="#F9C94A"/>
<path d="M157.751 46.5251L157.301 38.5825L164.738 38.2633L178.71 29.525L188.174 30.3196C188.174 30.3196 197.414 24.9169 201.472 25.2353C205.528 25.5535 214.992 32.385 214.992 33.6558C214.992 34.928 222.204 34.6099 222.204 34.6099L214.317 39.8521L212.288 49.7025C212.288 49.7025 207.329 57.0112 208.456 59.077C209.584 61.1421 203.274 55.7405 203.274 55.7405L203.047 58.9176L207.331 63.0489L204.625 63.8432L200.344 60.9831L198.766 64.7958L205.302 65.5904L183.893 73.3757L174.203 85.1313C174.203 85.1313 161.132 76.8703 165.638 72.2633C166.361 71.5227 169.47 68.1331 169.47 68.1331L167.216 49.3851L157.751 46.525L157.751 46.5251Z" fill="#F9C94A"/>
<path d="M218.937 118.099C218.937 117.622 221.302 111.426 221.302 111.426H230.935L230.768 106.541L226.879 104.515L231.275 103.801L239.724 99.6293L240.908 97.0084H244.966L244.796 92.242L246.655 90.931L248.515 95.6971H253.586C253.586 95.6971 260.177 95.3395 260.514 94.5056C260.851 93.6728 266.938 87.4755 266.938 87.4755C266.938 87.4755 265.247 79.254 260.007 79.8504C254.767 80.4454 255.951 83.3051 255.951 83.3051C255.951 83.3051 258.825 88.0719 256.121 91.1694C253.416 94.2678 251.895 93.1946 251.895 93.1946C251.895 93.1946 248.006 90.4545 248.006 87.953C248.006 85.4503 246.147 85.9267 246.147 85.9267C246.147 85.9267 243.612 89.3818 243.106 89.3818C242.598 89.3818 239.217 89.5017 240.063 84.973C240.908 80.4454 250.036 77.944 251.894 71.5078C253.755 65.0738 260.851 63.645 264.909 64.24C268.965 64.8354 286.373 69.0064 285.699 70.9139C285.022 72.8192 282.487 73.6536 282.487 73.6536C282.487 73.6536 275.894 71.6284 275.05 72.2238C274.205 72.8192 279.782 77.2276 279.782 77.2276L299.895 68.1723L309.868 68.0527L311.896 64.7171H318.487L313.08 59.8311L317.813 55.6611L321.362 58.5208L327.446 54.9447L339.445 60.6649L327.785 51.8483L332.007 51.132L333.024 45.651L342.659 41.7194L345.025 34.6892L351.785 37.5482L355.334 36.3579L360.91 39.3368L358.717 47.2007C358.717 47.2007 369.531 43.2681 379.504 44.3406C389.474 45.4142 390.661 47.0808 390.661 47.0808L401.475 41.1233L445.083 41.361L443.561 38.5019H473.478L475 44.3406C475 44.3406 468.071 44.5794 467.566 45.6509C467.054 46.7245 469.593 47.3195 468.745 48.9882C467.898 50.6558 464.691 51.2518 464.691 51.2518C464.691 51.2518 472.295 54.5884 474.322 55.6609C476.352 56.7321 470.437 58.6395 469.084 60.6648C467.732 62.69 467.393 63.6448 468.071 64.9547C468.745 66.265 467.898 63.406 465.196 64.5974C462.491 65.7885 463.504 69.7211 463.677 74.9637C463.843 80.2074 461.477 87.2378 461.477 87.2378L454.04 77.5857L456.745 62.9297C456.745 62.9297 445.927 61.3796 446.266 65.0735C446.605 68.7674 446.606 71.2708 446.606 71.2708C446.606 71.2708 435.619 69.0061 433.761 71.7459C431.9 74.4874 423.113 82.4709 425.984 84.2577C428.859 86.046 436.466 84.735 437.646 87.4751C438.829 90.2164 437.646 105.825 435.619 106.064C433.591 106.301 428.011 111.426 428.011 111.426C426.323 110.829 432.913 116.431 431.9 118.815C430.886 121.196 429.195 122.269 428.351 119.768C427.506 117.265 424.293 111.783 422.604 112.14C420.916 112.499 414.153 113.927 414.153 113.927L418.55 116.788L418.211 119.768L420.577 123.58L418.381 132.993C418.381 132.993 409.251 139.071 401.814 138.117C394.38 137.164 401.475 142.765 401.475 142.765C401.475 142.765 407.224 144.196 406.716 147.531C406.211 150.868 402.492 151.939 399.617 151.225C396.742 150.509 392.858 146.577 392.858 148.364C392.858 150.152 392.858 153.963 395.559 155.753C398.268 157.54 402.661 162.068 399.956 161.829C397.251 161.592 390.322 156.23 390.491 155.157C390.661 154.085 388.63 150.509 389.308 149.557C389.983 148.604 378.155 139.785 376.291 138.474C374.433 137.164 361.25 145.384 361.25 145.384C361.25 145.384 362.263 149.557 360.236 150.988C358.205 152.416 353.476 152.893 353.642 151.345C353.812 149.795 345.195 138.592 345.195 138.592L335.899 133.829L326.265 133.47L311.726 128.585C311.726 128.585 305.982 127.871 309.531 131.206C313.08 134.543 314.771 135.854 314.771 135.854L320.178 134.543L326.432 137.401C326.432 137.401 316.796 147.531 305.982 148.247L288.741 131.802C288.741 131.802 286.713 129.778 285.36 132.039C284.008 134.304 305.135 152.416 305.135 152.416L315.108 150.628C315.108 150.628 310.545 161.592 295.839 169.335L297.191 180.775L289.078 186.376L288.064 190.31L282.994 192.929L281.98 197.1C281.98 197.1 274.373 202.344 273.361 202.701C272.347 203.058 262.544 204.011 262.544 204.011C262.544 204.011 256.458 192.691 256.627 189.594C256.795 186.496 250.88 181.371 250.88 181.371C250.88 181.371 252.908 178.63 253.923 178.393C254.937 178.154 247.501 158.614 247.501 158.614L239.387 156.23L223.16 157.778L207.95 146.46C207.95 146.46 208.288 137.761 209.977 136.567C211.668 135.377 217.583 129.418 219.273 129.062C220.964 128.705 225.02 123.103 225.02 123.103C225.02 123.103 230.428 120.719 232.626 120.842C234.824 120.959 247.838 120.719 247.838 120.719L249.866 123.819L263.388 128.108L265.923 125.127L286.036 126.68L287.727 121.076L277.417 120.362C277.417 120.362 272.851 118.098 273.191 116.788C273.528 115.478 277.754 114.287 278.768 114.167C279.782 114.047 294.995 114.167 294.995 114.167L291.951 109.759L289.078 105.707L282.994 106.421L285.699 108.925L282.15 109.282L281.136 106.898H278.261C278.261 106.898 274.035 111.069 274.035 111.783C274.035 112.5 275.556 113.69 275.556 113.69L273.698 114.644L270.993 114.524L270.486 112.619C270.486 112.619 264.909 116.431 267.275 117.861C269.642 119.289 266.767 119.411 266.767 119.411C266.767 119.411 264.909 120.125 263.555 114.644C262.204 109.162 255.274 108.446 255.274 108.446C255.274 108.446 250.88 108.091 251.387 110.236C251.894 112.38 260.344 115.358 260.344 115.358L257.979 117.622L255.444 115.714C255.444 115.714 247.331 111.546 246.822 110.355C246.317 109.162 241.922 111.903 240.907 111.663C239.896 111.426 235.5 114.167 235.668 114.761C235.837 115.357 232.795 119.289 232.795 119.289L226.371 121.076L225.02 119.289L220.964 120.005L218.936 118.098L218.937 118.099Z" fill="#F9C94A"/>
<path d="M226.372 101.894C226.439 101.647 227.613 98.0019 227.613 98.0019L227.95 94.824L225.473 93.1561L223.445 91.091L227.613 89.1039L230.203 89.6608L229.302 91.6469L229.866 93.1561C229.866 93.1561 233.695 96.3333 234.035 96.7304C234.374 97.1279 235.501 99.7493 235.501 99.7493C235.501 99.7493 225.922 103.561 226.372 101.894H226.372Z" fill="#F9C94A"/>
<path d="M219.95 98.4781C219.95 98.4781 219.5 95.1422 220.514 95.0615C221.528 94.9831 222.88 94.1885 222.88 94.1885L224.571 94.3472L225.473 98.3183C225.473 98.3183 220.851 99.6698 219.95 98.4781H219.95Z" fill="#F9C94A"/>
<path d="M303.784 191.58L302.883 182.366C302.883 182.366 310.545 179.345 311.219 178.394C311.896 177.44 313.023 184.113 311.219 186.02C309.418 187.924 303.784 191.58 303.784 191.58Z" fill="#F9C94A"/>
<path d="M411.957 207.308C411.061 207.239 412.185 189.036 412.185 189.036C412.185 189.036 419.166 188.403 422.774 186.019C426.379 183.636 444.634 177.121 448.913 178.552V181.728L455.451 184.747L459.281 177.756C459.281 177.756 473.028 192.057 472.803 195.868C472.579 199.683 464.691 212.869 459.734 215.888C454.773 218.906 447.561 213.344 447.561 213.344L447.339 205.401L443.731 208.42L437.421 202.383C437.421 202.383 420.069 207.943 411.957 207.308L411.957 207.308Z" fill="#F9C94A"/>
<path d="M385.365 157.579C385.365 157.579 399.337 170.765 400.911 170.926C402.492 171.084 399.562 164.57 399.562 164.57L385.365 157.579V157.579Z" fill="#F9C94A"/>
<path d="M407.449 162.186C407.449 162.186 411.957 167.589 414.209 167.589C416.464 167.589 420.747 163.619 420.747 163.619L418.941 156.149C418.941 156.149 406.322 161.712 407.449 162.186H407.449Z" fill="#F9C94A"/>
<path d="M442.607 164.57C442.607 165.047 447.111 169.177 447.111 169.177L451.622 169.019L459.734 174.103L463.564 172.038L472.579 176.168C472.579 176.168 460.409 163.298 456.576 165.365C452.888 167.354 448.014 166.635 448.014 166.635L447.561 163.777L442.607 164.57Z" fill="#F9C94A"/>
<path d="M434.716 121.354C434.716 121.354 438.324 116.431 441.254 115.636C444.184 114.843 448.014 115.32 447.111 113.413C446.212 111.505 445.762 107.057 445.762 107.057L448.913 108.805L449.591 117.861L436.522 123.738L434.716 121.354Z" fill="#F9C94A"/>
<path d="M115.761 95.7101C115.761 96.8295 114.381 97.7371 112.68 97.7371C110.978 97.7371 109.597 96.8295 109.597 95.7101C109.597 94.5897 110.978 93.6831 112.68 93.6831C114.382 93.6831 115.761 94.5897 115.761 95.7101Z" fill="#FEFEFE"/>
<path d="M112.679 92.4768C109.883 92.4768 107.608 93.9272 107.608 95.7101C107.608 97.4928 109.883 98.9424 112.679 98.9424C115.476 98.9424 117.75 97.4929 117.75 95.7101C117.75 93.9272 115.476 92.4768 112.679 92.4768ZM112.679 99.5406C109.553 99.5406 107.011 97.8213 107.011 95.7101C107.011 93.5979 109.553 91.8798 112.679 91.8798C115.804 91.8798 118.347 93.5979 118.347 95.7101C118.347 97.8213 115.804 99.5406 112.679 99.5406Z" fill="#FEFEFE"/>
<path d="M65.6751 123.18C65.6751 124.302 64.2955 125.21 62.5935 125.21C60.8912 125.21 59.5105 124.302 59.5105 123.18C59.5105 122.061 60.8912 121.153 62.5935 121.153C64.2955 121.153 65.6751 122.061 65.6751 123.18Z" fill="#FEFEFE"/>
<path d="M62.5934 119.948C59.7962 119.948 57.5217 121.398 57.5217 123.18C57.5217 124.965 59.7962 126.414 62.5934 126.414C65.3893 126.414 67.6641 124.965 67.6641 123.18C67.6641 121.398 65.3893 119.948 62.5934 119.948ZM62.5934 127.011C59.4675 127.011 56.9255 125.293 56.9255 123.18C56.9255 121.067 59.4674 119.349 62.5934 119.349C65.7182 119.349 68.2602 121.067 68.2602 123.18C68.2602 125.293 65.7183 127.011 62.5934 127.011Z" fill="#FEFEFE"/>
<path d="M84.7659 141.074C84.7659 142.193 83.386 143.101 81.6836 143.101C79.9809 143.101 78.6011 142.193 78.6011 141.074C78.6011 139.955 79.981 139.048 81.6836 139.048C83.386 139.048 84.7659 139.955 84.7659 141.074Z" fill="#FEFEFE"/>
<path d="M81.6837 137.842C78.8872 137.842 76.6119 139.292 76.6119 141.074C76.6119 142.857 78.8872 144.308 81.6837 144.308C84.4789 144.308 86.7548 142.857 86.7548 141.074C86.7548 139.292 84.4789 137.842 81.6837 137.842ZM81.6837 144.905C78.5581 144.905 76.0151 143.185 76.0151 141.074C76.0151 138.961 78.5581 137.243 81.6837 137.243C84.8089 137.243 87.3508 138.961 87.3508 141.074C87.3508 143.185 84.8089 144.905 81.6837 144.905Z" fill="#FEFEFE"/>
<path d="M119.705 158.789C119.705 159.908 118.325 160.816 116.623 160.816C114.92 160.816 113.54 159.908 113.54 158.789C113.54 157.668 114.92 156.76 116.623 156.76C118.325 156.76 119.705 157.668 119.705 158.789Z" fill="#FEFEFE"/>
<path d="M116.623 155.554C113.826 155.554 111.551 157.004 111.551 158.789C111.551 160.569 113.826 162.021 116.623 162.021C119.418 162.021 121.694 160.569 121.694 158.789C121.694 157.004 119.418 155.554 116.623 155.554ZM116.623 162.617C113.497 162.617 110.954 160.9 110.954 158.789C110.954 156.676 113.497 154.956 116.623 154.956C119.748 154.956 122.289 156.676 122.289 158.789C122.289 160.9 119.748 162.617 116.623 162.617Z" fill="#FEFEFE"/>
<path d="M166.05 182.131C166.05 183.25 164.671 184.158 162.968 184.158C161.266 184.158 159.886 183.25 159.886 182.131C159.886 181.01 161.266 180.102 162.968 180.102C164.671 180.102 166.05 181.01 166.05 182.131Z" fill="#FEFEFE"/>
<path d="M162.968 178.897C160.173 178.897 157.898 180.349 157.898 182.131C157.898 183.914 160.173 185.363 162.968 185.363C165.765 185.363 168.039 183.914 168.039 182.131C168.039 180.349 165.765 178.897 162.968 178.897ZM162.968 185.962C159.843 185.962 157.301 184.242 157.301 182.131C157.301 180.018 159.842 178.3 162.968 178.3C166.093 178.3 168.636 180.018 168.636 182.131C168.636 184.242 166.093 185.962 162.968 185.962Z" fill="#FEFEFE"/>
<path d="M274.076 195.411C274.076 196.53 272.696 197.438 270.996 197.438C269.293 197.438 267.913 196.53 267.913 195.411C267.913 194.29 269.293 193.382 270.996 193.382C272.696 193.382 274.076 194.29 274.076 195.411Z" fill="#FEFEFE"/>
<path d="M270.996 192.177C268.198 192.177 265.923 193.628 265.923 195.411C265.923 197.193 268.198 198.643 270.996 198.643C273.791 198.643 276.066 197.193 276.066 195.411C276.066 193.628 273.791 192.177 270.996 192.177ZM270.996 199.242C267.87 199.242 265.328 197.521 265.328 195.411C265.328 193.298 267.87 191.58 270.996 191.58C274.119 191.58 276.664 193.298 276.664 195.411C276.664 197.521 274.119 199.242 270.996 199.242Z" fill="#FEFEFE"/>
<path d="M282.827 135.619C282.827 136.738 281.447 137.646 279.744 137.646C278.044 137.646 276.664 136.738 276.664 135.619C276.664 134.498 278.044 133.592 279.744 133.592C281.447 133.592 282.827 134.498 282.827 135.619Z" fill="#FEFEFE"/>
<path d="M279.744 132.385C276.949 132.385 274.674 133.834 274.674 135.619C274.674 137.401 276.949 138.851 279.744 138.851C282.54 138.851 284.817 137.401 284.817 135.619C284.817 133.834 282.54 132.385 279.744 132.385ZM279.744 139.447C276.618 139.447 274.076 137.73 274.076 135.619C274.076 133.506 276.618 131.788 279.744 131.788C282.87 131.788 285.412 133.506 285.412 135.619C285.412 137.73 282.87 139.447 279.744 139.447Z" fill="#FEFEFE"/>
<path d="M240.583 106.146C240.583 107.267 239.203 108.173 237.5 108.173C235.797 108.173 234.417 107.267 234.417 106.146C234.417 105.027 235.797 104.119 237.5 104.119C239.203 104.119 240.583 105.027 240.583 106.146Z" fill="#FEFEFE"/>
<path d="M237.5 102.914C234.704 102.914 232.43 104.364 232.43 106.146C232.43 107.929 234.704 109.38 237.5 109.38C240.298 109.38 242.572 107.929 242.572 106.146C242.572 104.364 240.298 102.914 237.5 102.914ZM237.5 109.977C234.374 109.977 231.832 108.259 231.832 106.146C231.832 104.033 234.374 102.315 237.5 102.315C240.626 102.315 243.168 104.033 243.168 106.146C243.168 108.259 240.626 109.977 237.5 109.977Z" fill="#FEFEFE"/>
<path d="M360.381 137.646C360.381 138.765 359.001 139.673 357.299 139.673C355.597 139.673 354.217 138.765 354.217 137.646C354.217 136.525 355.597 135.619 357.299 135.619C359.001 135.619 360.381 136.525 360.381 137.646Z" fill="#FEFEFE"/>
<path d="M357.299 134.411C354.5 134.411 352.228 135.861 352.228 137.646C352.228 139.428 354.5 140.878 357.299 140.878C360.094 140.878 362.37 139.428 362.37 137.646C362.37 135.861 360.094 134.411 357.299 134.411ZM357.299 141.474C354.175 141.474 351.633 139.757 351.633 137.646C351.633 135.533 354.175 133.815 357.299 133.815C360.426 133.815 362.969 135.533 362.969 137.646C362.969 139.757 360.426 141.474 357.299 141.474Z" fill="#FEFEFE"/>
<path d="M423.829 102.315C423.829 103.436 422.449 104.344 420.747 104.344C419.045 104.344 417.665 103.436 417.665 102.315C417.665 101.196 419.045 100.289 420.747 100.289C422.449 100.289 423.829 101.196 423.829 102.315Z" fill="#FEFEFE"/>
<path d="M420.747 99.0828C417.948 99.0828 415.676 100.534 415.676 102.315C415.676 104.1 417.948 105.549 420.747 105.549C423.542 105.549 425.818 104.1 425.818 102.315C425.818 100.534 423.542 99.0828 420.747 99.0828ZM420.747 106.146C417.62 106.146 415.077 104.428 415.077 102.315C415.077 100.203 417.62 98.486 420.747 98.486C423.871 98.486 426.413 100.203 426.413 102.315C426.413 104.428 423.871 106.146 420.747 106.146Z" fill="#FEFEFE"/>
<path d="M447.004 115.399C447.004 116.517 445.623 117.425 443.925 117.425C442.223 117.425 440.843 116.517 440.843 115.399C440.843 114.277 442.223 113.372 443.925 113.372C445.623 113.372 447.004 114.277 447.004 115.399Z" fill="#FEFEFE"/>
<path d="M443.925 112.164C441.13 112.164 438.853 113.616 438.853 115.399C438.853 117.181 441.13 118.631 443.925 118.631C446.716 118.631 448.993 117.181 448.993 115.399C448.993 113.616 446.716 112.164 443.925 112.164ZM443.925 119.227C440.798 119.227 438.255 117.509 438.255 115.399C438.255 113.285 440.798 111.568 443.925 111.568C447.049 111.568 449.591 113.285 449.591 115.399C449.591 117.509 447.049 119.227 443.925 119.227Z" fill="#FEFEFE"/>
<path d="M466.341 199.239C466.341 200.361 464.961 201.266 463.259 201.266C461.557 201.266 460.177 200.361 460.177 199.239C460.177 198.121 461.557 197.212 463.259 197.212C464.961 197.212 466.341 198.121 466.341 199.239Z" fill="#FEFEFE"/>
<path d="M463.259 196.007C460.464 196.007 458.191 197.457 458.191 199.239C458.191 201.024 460.464 202.474 463.259 202.474C466.054 202.474 468.331 201.024 468.331 199.239C468.331 197.457 466.054 196.007 463.259 196.007ZM463.259 203.07C460.135 203.07 457.593 201.353 457.593 199.239C457.593 197.129 460.135 195.411 463.259 195.411C466.383 195.411 468.929 197.129 468.929 199.239C468.929 201.353 466.383 203.07 463.259 203.07Z" fill="#FEFEFE"/>
<path d="M338.888 71.1502C338.888 72.2705 337.508 73.1785 335.806 73.1785C334.104 73.1785 332.724 72.2706 332.724 71.1502C332.724 70.0312 334.104 69.1243 335.806 69.1243C337.508 69.1243 338.888 70.0312 338.888 71.1502Z" fill="#FEFEFE"/>
<path d="M335.806 67.9178C333.011 67.9178 330.738 69.3685 330.738 71.1501C330.738 72.9338 333.011 74.3835 335.806 74.3835C338.601 74.3835 340.877 72.9339 340.877 71.1501C340.877 69.3685 338.601 67.9178 335.806 67.9178ZM335.806 74.9816C332.682 74.9816 330.14 73.2624 330.14 71.1501C330.14 69.0393 332.682 67.3208 335.806 67.3208C338.933 67.3208 341.476 69.0393 341.476 71.1501C341.476 73.2624 338.933 74.9816 335.806 74.9816Z" fill="#FEFEFE"/>
<path d="M145.058 205.835C145.058 206.956 143.678 207.864 141.976 207.864C140.273 207.864 138.893 206.956 138.893 205.835C138.893 204.719 140.273 203.808 141.976 203.808C143.678 203.808 145.058 204.719 145.058 205.835Z" fill="#FEFEFE"/>
<path d="M141.976 202.603C139.179 202.603 136.904 204.055 136.904 205.835C136.904 207.62 139.179 209.07 141.976 209.07C144.771 209.07 147.047 207.62 147.047 205.835C147.047 204.055 144.771 202.603 141.976 202.603ZM141.976 209.666C138.85 209.666 136.307 207.948 136.307 205.835C136.307 203.724 138.85 202.007 141.976 202.007C145.101 202.007 147.643 203.724 147.643 205.835C147.643 207.948 145.101 209.666 141.976 209.666Z" fill="#FEFEFE"/>
<path d="M117.204 158.923L117.205 158.918C117.22 158.856 117.363 158.259 117.666 157.234L116.523 156.894C116.191 158.012 116.044 158.64 116.042 158.652L117.204 158.923L117.204 158.923Z" fill="#FEFEFE"/>
<path d="M118.749 153.901C119.096 152.919 119.506 151.815 119.988 150.61L118.881 150.164C118.392 151.386 117.975 152.507 117.624 153.504L118.749 153.901H118.749ZM121.359 147.368C121.813 146.348 122.31 145.284 122.853 144.182L121.783 143.652C121.233 144.769 120.73 145.847 120.27 146.879L121.359 147.368ZM124.467 141.055C125.008 140.054 125.583 139.031 126.197 137.991L125.171 137.383C124.549 138.437 123.965 139.472 123.417 140.485L124.467 141.055ZM128.044 135.001C128.665 134.036 129.319 133.063 130.006 132.083L129.03 131.396C128.334 132.387 127.671 133.374 127.041 134.352L128.044 135.001V135.001ZM132.083 129.251C132.783 128.334 133.513 127.419 134.274 126.506L133.358 125.739C132.586 126.666 131.846 127.596 131.135 128.523L132.083 129.251V129.251ZM136.578 123.858C137.355 123.003 138.16 122.152 138.995 121.312L138.149 120.471C137.301 121.323 136.484 122.186 135.696 123.053L136.578 123.858ZM141.521 118.88C142.371 118.096 143.248 117.323 144.154 116.563L143.388 115.648C142.468 116.419 141.577 117.203 140.713 117.998L141.521 118.88H141.521H141.521ZM146.891 114.373C147.809 113.671 148.754 112.984 149.726 112.313L149.049 111.328C148.061 112.011 147.101 112.711 146.168 113.422L146.891 114.373ZM152.656 110.391C153.636 109.781 154.641 109.189 155.673 108.611L155.092 107.567C154.044 108.154 153.022 108.757 152.026 109.376L152.656 110.391H152.656ZM158.771 106.977C159.804 106.465 160.861 105.969 161.943 105.494L161.463 104.4C160.364 104.883 159.29 105.387 158.241 105.909L158.771 106.977ZM165.181 104.16C166.257 103.746 167.355 103.35 168.477 102.976L168.1 101.842C166.961 102.222 165.845 102.623 164.752 103.044L165.181 104.16ZM171.824 101.943C172.932 101.628 174.062 101.333 175.213 101.058L174.937 99.8959C173.769 100.174 172.623 100.473 171.498 100.793L171.824 101.943H171.824ZM178.638 100.319C179.77 100.1 180.921 99.9007 182.092 99.7226L181.913 98.5405C180.725 98.7214 179.558 98.9235 178.412 99.1459L178.638 100.319ZM185.567 99.263C186.712 99.1341 187.876 99.0257 189.058 98.9373L188.97 97.7451C187.773 97.8345 186.594 97.9451 185.434 98.0755L185.567 99.263ZM192.561 98.7387C193.714 98.694 194.884 98.6687 196.071 98.6632L196.066 97.4679C194.865 97.4735 193.682 97.4991 192.515 97.5445L192.561 98.7387ZM199.583 98.7047C200.738 98.737 201.908 98.7879 203.093 98.8583L203.163 97.6648C201.966 97.5941 200.783 97.5428 199.616 97.5099L199.583 98.7047H199.583ZM206.598 99.1172C207.749 99.2194 208.915 99.3393 210.094 99.4776L210.233 98.2903C209.042 98.151 207.865 98.0297 206.703 97.9267L206.598 99.1175V99.1171V99.1172ZM213.581 99.9333C214.726 100.098 215.884 100.28 217.055 100.479L217.255 99.3011C216.074 99.1002 214.906 98.9168 213.751 98.7502L213.581 99.9333ZM220.515 101.111C221.652 101.333 222.8 101.57 223.961 101.824L224.215 100.657C223.045 100.401 221.889 100.161 220.743 99.9382L220.515 101.111V101.111ZM227.391 102.614C228.517 102.886 229.653 103.173 230.804 103.477L231.107 102.321C229.95 102.016 228.804 101.726 227.671 101.452L227.391 102.614Z" fill="#FEFEFE"/>
<path d="M234.238 104.419C234.805 104.581 235.376 104.747 235.95 104.917L236.287 103.77C235.711 103.599 235.135 103.432 234.563 103.269L234.238 104.419H234.238Z" fill="#FEFEFE"/>
<path d="M81.9518 141.609C81.9518 141.609 81.9674 141.601 82.0013 141.585C82.2403 141.465 83.3367 140.931 85.186 140.126L84.711 139.028C82.5749 139.958 81.4254 140.535 81.416 140.54L81.9518 141.609ZM88.479 138.75C89.4828 138.345 90.5943 137.912 91.8065 137.459L91.389 136.34C90.1675 136.798 89.0473 137.234 88.0344 137.641L88.479 138.75ZM95.1642 136.244C96.2352 135.871 97.3636 135.487 98.5467 135.101L98.1776 133.966C96.9862 134.354 95.8498 134.738 94.7712 135.116L95.1642 136.244V136.244ZM101.952 134.029C103.057 133.693 104.199 133.358 105.379 133.025L105.056 131.874C103.869 132.21 102.718 132.548 101.606 132.886L101.952 134.029ZM108.825 132.09C109.951 131.798 111.106 131.508 112.288 131.225L112.011 130.063C110.821 130.348 109.659 130.638 108.525 130.935L108.825 132.09V132.09ZM115.768 130.43C116.911 130.181 118.076 129.938 119.263 129.704L119.032 128.532C117.838 128.767 116.665 129.012 115.514 129.261L115.768 130.43ZM122.771 129.05C123.927 128.846 125.101 128.652 126.292 128.468L126.11 127.286C124.91 127.471 123.729 127.668 122.565 127.873L122.771 129.05ZM129.823 127.96C130.99 127.804 132.17 127.658 133.365 127.526L133.233 126.338C132.029 126.472 130.84 126.618 129.666 126.774L129.823 127.96ZM136.914 127.167C138.088 127.061 139.274 126.968 140.471 126.889L140.391 125.696C139.185 125.777 137.99 125.871 136.808 125.976L136.914 127.167H136.914ZM144.032 126.688C145.21 126.635 146.398 126.594 147.596 126.568L147.57 125.372C146.363 125.401 145.166 125.439 143.978 125.494L144.032 126.687L144.032 126.688ZM151.162 126.532C152.342 126.534 153.53 126.549 154.727 126.577L154.757 125.384C153.551 125.353 152.353 125.339 151.163 125.336L151.162 126.532H151.162ZM158.29 126.711C159.469 126.769 160.655 126.843 161.848 126.929L161.936 125.739C160.733 125.65 159.537 125.576 158.348 125.516L158.29 126.711ZM165.399 127.239C166.575 127.356 167.755 127.488 168.941 127.636L169.089 126.45C167.893 126.299 166.702 126.168 165.517 126.048L165.399 127.239H165.399ZM172.471 128.123C173.639 128.3 174.812 128.494 175.987 128.702L176.197 127.526C175.01 127.315 173.828 127.121 172.65 126.941L172.471 128.123H172.471ZM179.487 129.376C180.644 129.613 181.804 129.869 182.967 130.142L183.239 128.978C182.065 128.702 180.894 128.446 179.727 128.204L179.487 129.376ZM186.425 131C187.567 131.302 188.712 131.618 189.858 131.954L190.192 130.806C189.035 130.468 187.88 130.147 186.728 129.845L186.425 131V131ZM193.263 133.001C194.387 133.365 195.512 133.743 196.638 134.143L197.035 133.015C195.899 132.612 194.763 132.229 193.629 131.862L193.263 133.001V133.001ZM199.98 135.377C201.082 135.801 202.184 136.244 203.286 136.704L203.745 135.6C202.633 135.135 201.52 134.689 200.408 134.261L199.98 135.377H199.98ZM206.554 138.123C207.63 138.609 208.706 139.112 209.782 139.632L210.301 138.556C209.216 138.029 208.13 137.524 207.044 137.033L206.554 138.123L206.554 138.123ZM212.966 141.23C214.013 141.774 215.06 142.337 216.105 142.917L216.683 141.872C215.628 141.285 214.572 140.72 213.515 140.171L212.966 141.23V141.23ZM219.196 144.69C220.211 145.289 221.226 145.909 222.239 146.544L222.873 145.533C221.851 144.891 220.828 144.265 219.803 143.659L219.196 144.69V144.69ZM225.231 148.482C226.212 149.136 227.193 149.807 228.17 150.497L228.857 149.519C227.869 148.825 226.881 148.146 225.891 147.485L225.231 148.482V148.482ZM231.055 152.591C232.002 153.295 232.944 154.016 233.886 154.756L234.623 153.817C233.673 153.07 232.721 152.342 231.767 151.632L231.055 152.591ZM236.663 156.997C237.572 157.747 238.478 158.516 239.382 159.304L240.164 158.4C239.253 157.608 238.337 156.831 237.421 156.074L236.663 156.997L236.663 156.997ZM242.044 161.676C242.915 162.471 243.783 163.283 244.648 164.112L245.473 163.247C244.601 162.414 243.725 161.594 242.847 160.792L242.044 161.676ZM247.195 166.608C248.03 167.445 248.86 168.295 249.687 169.165L250.551 168.339C249.716 167.464 248.879 166.606 248.04 165.765L247.195 166.609V166.608ZM252.12 171.774C252.916 172.646 253.707 173.533 254.497 174.436L255.394 173.65C254.6 172.739 253.801 171.846 253.002 170.969L252.12 171.774H252.12ZM256.817 177.15C257.575 178.053 258.328 178.973 259.079 179.91L260.009 179.16C259.253 178.219 258.493 177.291 257.73 176.381L256.817 177.15ZM261.289 182.715C262.009 183.65 262.728 184.599 263.441 185.562L264.4 184.85C263.68 183.88 262.958 182.924 262.233 181.985L261.289 182.715V182.715ZM265.541 188.451C266.227 189.414 266.909 190.389 267.588 191.379L268.571 190.703C267.889 189.706 267.203 188.724 266.512 187.756L265.541 188.451H265.541ZM269.583 194.342C269.889 194.805 270.193 195.27 270.494 195.734L271.496 195.085C271.19 194.616 270.884 194.148 270.578 193.683L269.583 194.342V194.342Z" fill="#FEFEFE"/>
<path d="M142.572 205.825C142.551 204.692 142.54 203.568 142.54 202.455C142.54 202.387 142.54 202.321 142.54 202.253L141.348 202.251C141.348 202.318 141.347 202.387 141.347 202.455C141.347 203.576 141.358 204.707 141.38 205.849L142.572 205.825H142.572ZM142.582 198.681C142.608 197.481 142.648 196.29 142.699 195.112L141.508 195.059C141.455 196.247 141.416 197.445 141.389 198.655L142.582 198.681V198.681ZM142.897 191.549C142.976 190.349 143.07 189.163 143.176 187.989L141.988 187.881C141.881 189.064 141.787 190.26 141.706 191.468L142.897 191.549L142.897 191.549ZM143.542 184.441C143.679 183.247 143.831 182.066 143.996 180.9L142.814 180.732C142.648 181.91 142.495 183.099 142.356 184.302L143.542 184.441H143.542ZM144.542 177.376C144.741 176.192 144.955 175.023 145.183 173.866L144.012 173.636C143.782 174.802 143.566 175.981 143.365 177.177L144.542 177.376ZM145.921 170.377C146.187 169.208 146.467 168.053 146.761 166.913L145.606 166.613C145.309 167.766 145.026 168.933 144.758 170.114L145.921 170.377V170.377ZM147.705 163.477C148.04 162.327 148.39 161.192 148.755 160.071L147.621 159.701C147.252 160.832 146.898 161.98 146.56 163.142L147.705 163.477ZM149.914 156.702C150.321 155.576 150.745 154.467 151.183 153.374L150.075 152.928C149.632 154.035 149.205 155.157 148.792 156.295L149.914 156.702ZM152.564 150.092C153.047 148.997 153.545 147.921 154.059 146.86L152.985 146.338C152.466 147.411 151.961 148.501 151.473 149.608L152.564 150.092ZM155.667 143.683C156.226 142.629 156.8 141.589 157.389 140.569L156.357 139.972C155.76 141.005 155.179 142.057 154.613 143.125L155.667 143.683ZM159.225 137.521C159.86 136.51 160.509 135.519 161.174 134.543L160.189 133.87C159.516 134.857 158.858 135.861 158.215 136.884L159.225 137.521H159.225ZM163.234 131.642C163.942 130.683 164.665 129.742 165.402 128.82L164.471 128.072C163.724 129.007 162.992 129.96 162.275 130.931L163.234 131.642ZM167.676 126.084C168.454 125.183 169.247 124.301 170.053 123.436L169.181 122.622C168.365 123.496 167.562 124.39 166.774 125.303L167.676 126.084ZM172.529 120.882C173.372 120.044 174.23 119.224 175.1 118.424L174.292 117.543C173.411 118.355 172.543 119.186 171.689 120.034L172.529 120.882ZM177.77 116.055C178.675 115.281 179.593 114.524 180.524 113.789L179.783 112.849C178.842 113.597 177.912 114.361 176.996 115.145L177.77 116.055H177.77ZM183.357 111.623C184.314 110.921 185.283 110.233 186.264 109.565L185.592 108.575C184.6 109.253 183.619 109.948 182.65 110.66L183.357 111.623ZM189.24 107.609C190.243 106.975 191.256 106.357 192.28 105.758L191.678 104.725C190.643 105.331 189.617 105.957 188.602 106.599L189.24 107.61L189.24 107.609ZM195.38 104.009C196.423 103.444 197.475 102.895 198.536 102.363L198.001 101.294C196.929 101.832 195.866 102.386 194.812 102.957L195.38 104.009ZM201.741 100.819C202.817 100.321 203.901 99.8395 204.993 99.3745L204.526 98.2746C203.423 98.7445 202.328 99.2307 201.241 99.7335L201.741 100.819V100.819ZM208.287 98.0288C209.391 97.5971 210.502 97.1808 211.62 96.7805L211.218 95.6553C210.09 96.0594 208.968 96.4794 207.853 96.9157L208.287 98.0289L208.287 98.0288ZM214.987 95.6276C216.115 95.2591 217.248 94.9061 218.386 94.5685L218.047 93.4225C216.899 93.7632 215.755 94.1195 214.617 94.4912L214.987 95.6277V95.6276ZM221.814 93.6016C222.96 93.2943 224.112 93.0024 225.267 92.7248L224.988 91.5625C223.823 91.8422 222.662 92.1367 221.505 92.4469L221.814 93.6016ZM228.742 91.9368C229.905 91.689 231.069 91.4555 232.236 91.2361L232.019 90.0616C230.839 90.2824 229.665 90.5177 228.494 90.7679L228.742 91.9368ZM235.749 90.6209C236.924 90.43 238.1 90.2529 239.28 90.0897L239.115 88.9059C237.928 89.0701 236.742 89.2486 235.558 89.4413L235.749 90.6209H235.749ZM242.821 89.6416C244.005 89.5054 245.189 89.3831 246.373 89.2746L246.265 88.0842C245.072 88.1937 243.876 88.3167 242.685 88.4539L242.821 89.6415V89.6416ZM249.936 88.9877C251.125 88.9052 252.316 88.8363 253.504 88.7801L253.449 87.5866C252.251 87.6428 251.053 87.7124 249.852 87.7952L249.936 88.9877ZM257.075 88.6516C258.266 88.6215 259.455 88.6045 260.643 88.5999L260.638 87.4047C259.443 87.4092 258.244 87.4262 257.046 87.4567L257.075 88.6516ZM264.212 88.6249C265.402 88.646 266.591 88.6796 267.777 88.7257L267.823 87.5315C266.629 87.4847 265.431 87.4511 264.231 87.4297L264.212 88.6249L264.212 88.6249ZM271.34 88.9017C272.531 88.9731 273.718 89.057 274.899 89.153L274.997 87.9619C273.806 87.8648 272.61 87.7803 271.412 87.7086L271.34 88.9017ZM278.453 89.4794C279.639 89.601 280.82 89.7348 281.997 89.8807L282.145 88.6948C280.959 88.5479 279.77 88.4131 278.575 88.2901L278.453 89.4794H278.453ZM285.534 90.3576C286.716 90.5302 287.89 90.7142 289.06 90.9107L289.255 89.7317C288.079 89.5342 286.895 89.3485 285.706 89.1749L285.534 90.3576H285.534ZM292.57 91.54C293.745 91.7636 294.909 91.9992 296.067 92.247L296.316 91.0781C295.151 90.8285 293.976 90.5912 292.793 90.3655L292.57 91.54H292.57ZM299.546 93.0329C300.711 93.3098 301.864 93.5985 303.007 93.8993L303.311 92.7432C302.158 92.4403 300.996 92.1492 299.821 91.8699L299.546 93.0328V93.0329ZM306.446 94.8478C307.596 95.1805 308.732 95.5249 309.859 95.8812L310.217 94.7414C309.084 94.3824 307.936 94.0348 306.776 93.6993L306.446 94.8477L306.446 94.8478ZM313.243 97.0016C314.377 97.3932 315.493 97.7969 316.596 98.2124L317.017 97.0938C315.905 96.6745 314.776 96.2669 313.633 95.8718L313.243 97.0016H313.243ZM319.913 99.5176C321.023 99.973 322.116 100.441 323.187 100.921L323.675 99.8291C322.589 99.3443 321.487 98.8717 320.365 98.4114L319.913 99.5176H319.913ZM326.416 102.428C327.494 102.955 328.554 103.491 329.587 104.042L330.147 102.988C329.099 102.43 328.03 101.885 326.937 101.353L326.416 102.428ZM332.696 105.775C333.738 106.381 334.748 106.999 335.73 107.629L336.374 106.623C335.377 105.983 334.35 105.355 333.295 104.742L332.696 105.775ZM338.678 109.615C339.66 110.312 340.608 111.021 341.521 111.743L342.258 110.806C341.331 110.07 340.366 109.347 339.369 108.64L338.678 109.615ZM344.237 114.021C345.133 114.823 345.991 115.638 346.8 116.465L347.651 115.626C346.821 114.78 345.949 113.947 345.029 113.13L344.237 114.021L344.237 114.021ZM349.177 119.079C349.952 119.996 350.664 120.928 351.328 121.872L352.304 121.187C351.623 120.212 350.882 119.253 350.09 118.307L349.177 119.079V119.079ZM353.2 124.85C353.778 125.89 354.29 126.941 354.729 128.005L355.833 127.545C355.372 126.438 354.843 125.346 354.238 124.268L353.2 124.85ZM355.857 131.311C356.161 132.442 356.383 133.585 356.524 134.737L357.711 134.591C357.562 133.381 357.327 132.183 357.009 131.002L355.857 131.311H355.857Z" fill="#FEFEFE"/>
<path d="M113.276 95.7101C113.276 94.5114 113.298 93.3251 113.343 92.1515L112.151 92.1063C112.105 93.2954 112.083 94.4965 112.083 95.7101H113.276ZM113.547 88.5993C113.639 87.4058 113.754 86.2257 113.893 85.0592L112.708 84.9182C112.567 86.1013 112.451 87.2976 112.357 88.5067L113.547 88.5993ZM114.386 81.5373C114.576 80.358 114.791 79.1925 115.029 78.041L113.861 77.7987C113.619 78.9673 113.401 80.1497 113.207 81.346L114.386 81.5373V81.5373ZM115.827 74.5779C116.121 73.4218 116.439 72.2813 116.781 71.1551L115.639 70.8071C115.292 71.9507 114.969 73.1097 114.67 74.2827L115.827 74.5779H115.827ZM117.892 67.78C118.29 66.6589 118.713 65.5527 119.16 64.4618L118.056 64.0085C117.602 65.1168 117.172 66.2402 116.767 67.3793L117.892 67.78H117.892ZM120.583 61.2073C121.084 60.1309 121.61 59.0698 122.159 58.0242L121.103 57.468C120.545 58.5301 120.011 59.6079 119.501 60.7017L120.583 61.2073V61.2073ZM123.887 54.9133C124.487 53.8906 125.11 52.8832 125.756 51.8917L124.757 51.2385C124.101 52.2455 123.468 53.2686 122.859 54.3075L123.887 54.9133ZM127.761 48.9637C128.449 48.0052 129.161 47.0619 129.893 46.1334L128.957 45.3922C128.213 46.3344 127.492 47.2923 126.792 48.2654L127.761 48.9637ZM132.155 43.3922C132.927 42.4967 133.72 41.6161 134.534 40.7505L133.665 39.9316C132.84 40.809 132.036 41.7021 131.252 42.6107L132.155 43.3922ZM137.021 38.2099C137.865 37.3827 138.728 36.5697 139.61 35.7713L138.81 34.8844C137.916 35.6933 137.042 36.5167 136.187 37.3557L137.021 38.21V38.2099ZM142.293 33.4345C143.198 32.6755 144.121 31.9304 145.061 31.1992L144.329 30.2549C143.378 30.9951 142.444 31.7491 141.527 32.5178L142.293 33.4345H142.293ZM147.909 29.0641C148.867 28.3721 149.841 27.6936 150.83 27.0279L150.165 26.0357C149.165 26.7083 148.18 27.3944 147.211 28.0952L147.909 29.0641ZM153.817 25.0889C154.818 24.4596 155.834 23.8462 156.864 23.2431L156.262 22.2104C155.222 22.8204 154.196 23.4406 153.184 24.0749L153.817 25.0889H153.817ZM159.966 21.493C161.004 20.9247 162.055 20.3702 163.118 19.8296L162.578 18.7657C161.504 19.3098 160.443 19.8712 159.395 20.443L159.966 21.493H159.966ZM166.316 18.2563C167.384 17.7469 168.464 17.2513 169.555 16.7661L169.071 15.6745C167.971 16.1631 166.881 16.6622 165.804 17.175L166.316 18.2563ZM172.831 15.3592C173.924 14.9052 175.028 14.4616 176.141 14.0319L175.711 12.916C174.589 13.3526 173.476 13.7962 172.375 14.2537L172.831 15.3592H172.831ZM179.482 12.7843C180.596 12.3823 181.719 11.9907 182.851 11.6096L182.471 10.4763C181.33 10.861 180.2 11.2526 179.077 11.6581L179.482 12.7844L179.482 12.7843ZM186.244 10.5074C187.375 10.1539 188.513 9.81094 189.66 9.4782L189.328 8.3311C188.173 8.66725 187.027 9.01038 185.888 9.36732L186.244 10.5074ZM193.097 8.51829C194.242 8.20982 195.393 7.91182 196.552 7.62414L196.264 6.46323C195.099 6.75433 193.939 7.0524 192.787 7.36421L193.097 8.51822H193.097V8.51829ZM200.024 6.7924C201.179 6.52906 202.342 6.27263 203.51 6.02999L203.265 4.85862C202.09 5.10467 200.921 5.36111 199.758 5.62801L200.024 6.79233V6.7924ZM207.01 5.32303C208.175 5.10125 209.346 4.88638 210.521 4.68197L210.316 3.5037C209.134 3.70818 207.957 3.92647 206.785 4.15173L207.01 5.3231V5.32303ZM214.043 4.09629C215.216 3.9091 216.393 3.73238 217.575 3.56605L217.408 2.38436C216.22 2.55069 215.037 2.72741 213.858 2.91453L214.043 4.09629ZM221.114 3.09481C222.293 2.94577 223.476 2.80713 224.662 2.67894L224.53 1.49028C223.339 1.62195 222.15 1.76059 220.966 1.90963L221.114 3.09481H221.114ZM228.214 2.31503C229.397 2.20066 230.581 2.09667 231.772 2.00308L231.676 0.810924C230.481 0.908006 229.29 1.01192 228.101 1.12288L228.214 2.31503H228.214ZM235.333 1.74323C236.519 1.667 237.708 1.59768 238.899 1.53526L238.839 0.343176C237.641 0.402034 236.448 0.471358 235.257 0.551072L235.333 1.74323H235.333ZM242.455 1.3759C243.641 1.33434 244.828 1.29619 246.019 1.26843L245.99 0.0728597C244.794 0.100544 243.601 0.138769 242.41 0.183747L242.455 1.3759H242.455ZM249.587 1.20957C250.484 1.19918 251.383 1.19569 252.285 1.19569C252.574 1.19569 252.866 1.19569 253.155 1.19569L253.16 0.00012207C252.868 0.00012207 252.576 0.00012207 252.284 0.00012207C251.381 0.00012207 250.477 0.00361051 249.575 0.0140016L249.587 1.20957H249.587ZM256.721 1.23035C257.909 1.25113 259.098 1.27882 260.287 1.31356L260.323 0.117987C259.127 0.0832508 257.933 0.0555659 256.74 0.0347838L256.721 1.23035ZM263.855 1.44174C265.043 1.49369 266.232 1.55262 267.421 1.61846L267.488 0.426305C266.292 0.357056 265.099 0.298124 263.905 0.249582L263.855 1.44174ZM270.986 1.84023C272.175 1.92344 273.364 2.00998 274.552 2.10706L274.648 0.918397C273.457 0.817901 272.264 0.731283 271.068 0.648081L270.986 1.84023H270.986ZM278.115 2.42243C279.302 2.53332 280.49 2.6546 281.676 2.78286L281.803 1.59419C280.612 1.46601 279.421 1.34465 278.228 1.23377L278.115 2.42243ZM285.233 3.18826C286.419 3.33032 287.605 3.48284 288.787 3.63878L288.945 2.45702C287.756 2.29767 286.567 2.14514 285.376 2.003L285.233 3.18818L285.233 3.18826ZM292.336 4.13778C293.52 4.31458 294.701 4.49471 295.882 4.68539L296.069 3.50363C294.885 3.31302 293.699 3.13281 292.51 2.95602L292.336 4.13778ZM299.405 5.27449C300.58 5.4789 301.751 5.69028 302.921 5.90864L303.141 4.73386C301.967 4.51208 300.79 4.3007 299.608 4.09621L299.405 5.27449H299.405ZM306.429 6.59141C307.596 6.82707 308.763 7.06962 309.926 7.31916L310.177 6.15127C309.01 5.89833 307.838 5.65569 306.664 5.42004L306.429 6.59141H306.429ZM313.413 8.09537C314.575 8.36576 315.735 8.63949 316.89 8.9202L317.172 7.75922C316.012 7.4751 314.848 7.20129 313.68 6.93105L313.413 8.09537H313.413ZM320.353 9.79342C321.508 10.095 322.659 10.4034 323.804 10.7153L324.119 9.56475C322.969 9.24938 321.812 8.93742 320.652 8.63601L320.353 9.79342H320.353ZM327.24 11.6891C328.389 12.0218 329.529 12.3648 330.662 12.7114L331.015 11.5678C329.873 11.2177 328.726 10.8748 327.573 10.542L327.24 11.6891ZM334.069 13.7857C335.208 14.153 336.335 14.5307 337.46 14.9119L337.844 13.7822C336.716 13.3976 335.581 13.0197 334.436 12.649L334.069 13.7857ZM340.829 16.0937C341.953 16.4991 343.071 16.9081 344.181 17.3274L344.603 16.2116C343.486 15.7888 342.362 15.3763 341.234 14.9674L340.829 16.0937ZM347.513 18.6201C348.62 19.0602 349.723 19.5107 350.816 19.9682L351.276 18.8627C350.176 18.4053 349.069 17.9513 347.952 17.5077L347.513 18.6201V18.6201ZM354.099 21.3717C355.192 21.8534 356.278 22.342 357.354 22.8411L357.852 21.7529C356.77 21.2539 355.68 20.7618 354.58 20.2801L354.099 21.3752V21.3717ZM360.582 24.3659C361.654 24.8892 362.72 25.4194 363.775 25.9583L364.318 24.8927C363.256 24.3521 362.184 23.8184 361.101 23.2916L360.582 24.3659ZM366.937 27.6138C367.992 28.1793 369.03 28.7535 370.061 29.3361L370.649 28.2954C369.611 27.7084 368.563 27.1303 367.501 26.5603L366.937 27.6138H366.937ZM373.146 31.1274C374.174 31.7395 375.187 32.3605 376.191 32.9898L376.824 31.9772C375.817 31.3427 374.793 30.7171 373.755 30.1007L373.146 31.1275L373.146 31.1274ZM379.186 34.9249C380.183 35.5858 381.162 36.256 382.13 36.9349L382.815 35.9559C381.84 35.2711 380.85 34.5953 379.844 33.9282L379.186 34.9249H379.186ZM385.019 39.0225C385.981 39.7357 386.925 40.4579 387.849 41.1894L388.589 40.2507C387.655 39.5118 386.7 38.7823 385.732 38.0625L385.019 39.0224L385.019 39.0225ZM390.613 43.4382C391.529 44.2065 392.425 44.9842 393.307 45.7712L394.1 44.8799C393.214 44.0839 392.304 43.2982 391.381 42.522L390.613 43.4383L390.613 43.4382ZM395.923 48.1898C396.781 49.0152 397.625 49.8508 398.448 50.696L399.303 49.8615C398.469 49.0059 397.618 48.1607 396.743 47.3255L395.923 48.1898V48.1898ZM400.883 53.2913C401.686 54.1761 402.461 55.0715 403.218 55.9767L404.135 55.2097C403.367 54.2924 402.578 53.3851 401.769 52.489L400.883 53.2913ZM405.439 58.7526C406.162 59.6977 406.865 60.653 407.543 61.6185L408.518 60.9323C407.833 59.9523 407.121 58.9827 406.387 58.0241L405.439 58.7525L405.439 58.7526ZM409.515 64.5743C410.151 65.5779 410.763 66.5922 411.348 67.6169L412.382 67.0243C411.787 65.983 411.168 64.9524 410.521 63.9331L409.515 64.5743ZM413.029 70.7438C413.566 71.8043 414.074 72.8751 414.555 73.9567L415.645 73.4719C415.157 72.3709 414.638 71.2813 414.091 70.2033L413.029 70.7438H413.029ZM415.904 77.2361C416.326 78.3382 416.717 79.4502 417.077 80.5731L418.211 80.2074C417.845 79.0639 417.447 77.931 417.018 76.8092L415.904 77.2362V77.2361ZM418.066 83.9779C418.367 85.1191 418.633 86.2703 418.869 87.4316L420.038 87.194C419.799 86.0104 419.526 84.8374 419.222 83.6754L418.066 83.9779H418.066ZM419.474 90.9248C419.643 92.0892 419.785 93.2637 419.889 94.4479L421.079 94.3412C420.972 93.1348 420.83 91.9389 420.657 90.7523L419.474 90.9249V90.9248ZM420.111 97.9913C420.135 98.7534 420.149 99.5189 420.149 100.289H421.342C421.342 99.5054 421.328 98.7257 421.304 97.9497L420.111 97.9913Z" fill="#FEFEFE"/>
<path d="M463.854 199.239C463.854 198.037 463.854 196.841 463.847 195.651L462.654 195.658C462.66 196.846 462.66 198.039 462.66 199.239H463.854V199.239ZM463.809 192.062C463.795 190.859 463.778 189.663 463.754 188.473L462.56 188.497C462.584 189.683 462.602 190.878 462.615 192.076L463.809 192.062V192.062ZM463.671 184.884C463.639 183.681 463.608 182.486 463.567 181.297L462.373 181.336C462.415 182.521 462.45 183.715 462.481 184.915L463.671 184.884L463.671 184.884ZM463.435 177.709C463.39 176.508 463.335 175.312 463.28 174.122L462.09 174.179C462.145 175.365 462.197 176.558 462.242 177.756L463.435 177.709H463.435ZM463.1 170.538C463.034 169.335 462.965 168.142 462.892 166.954L461.702 167.028C461.775 168.211 461.844 169.404 461.91 170.603L463.1 170.538V170.538ZM462.657 163.372C462.577 162.172 462.488 160.979 462.397 159.79L461.207 159.884C461.297 161.067 461.384 162.258 461.467 163.454L462.657 163.372V163.372ZM462.107 156.213C462.003 155.013 461.896 153.822 461.785 152.636L460.602 152.749C460.709 153.93 460.817 155.118 460.917 156.314L462.107 156.213ZM461.439 149.064C461.318 147.866 461.19 146.676 461.059 145.494L459.872 145.624C460.004 146.803 460.128 147.991 460.253 149.184L461.439 149.064V149.064ZM460.651 141.927C460.509 140.729 460.36 139.544 460.211 138.362L459.028 138.516C459.177 139.692 459.322 140.875 459.468 142.069L460.651 141.928V141.927ZM459.737 134.804C459.571 133.609 459.402 132.426 459.229 131.249L458.049 131.424C458.222 132.595 458.392 133.777 458.554 134.967L459.737 134.804ZM458.689 127.698C458.502 126.508 458.309 125.327 458.115 124.155L456.935 124.352C457.132 125.521 457.323 126.697 457.509 127.886L458.689 127.698V127.698ZM457.502 120.617C457.292 119.428 457.074 118.252 456.852 117.083L455.679 117.306C455.901 118.47 456.115 119.641 456.326 120.825L457.503 120.617H457.502ZM456.167 113.559C455.928 112.375 455.69 111.203 455.441 110.039L454.271 110.288C454.517 111.446 454.759 112.615 454.998 113.793L456.167 113.559ZM454.673 106.531C454.41 105.353 454.14 104.186 453.867 103.031L452.708 103.307C452.978 104.457 453.247 105.619 453.51 106.793L454.673 106.531V106.531ZM453.019 99.5406C452.725 98.3689 452.428 97.2092 452.123 96.0608L450.971 96.3662C451.272 97.5095 451.57 98.6641 451.86 99.831L453.019 99.5406L453.019 99.5406ZM451.186 92.5929C450.864 91.4292 450.535 90.2773 450.203 89.1378L449.058 89.474C449.39 90.6079 449.715 91.7543 450.037 92.9135L451.186 92.5929ZM449.172 85.6966C448.816 84.5412 448.453 83.399 448.086 82.2703L446.955 82.6389C447.318 83.7625 447.678 84.8988 448.031 86.0487L449.172 85.6966H449.172ZM446.955 78.8598C446.564 77.7152 446.17 76.5844 445.768 75.4678L444.648 75.8719C445.042 76.9826 445.436 78.1075 445.824 79.2463L446.955 78.8598ZM444.526 72.0949C444.101 70.9626 443.669 69.8454 443.229 68.743L442.122 69.1852C442.555 70.2807 442.987 71.3913 443.413 72.5176L444.526 72.0949ZM441.873 65.4144C441.406 64.2964 440.932 63.1954 440.455 62.1104L439.362 62.5928C439.839 63.6708 440.309 64.7652 440.773 65.876L441.873 65.4144H441.873ZM438.974 58.8341C438.466 57.7345 437.947 56.6526 437.428 55.5883L436.359 56.1141C436.874 57.171 437.386 58.2457 437.891 59.338L438.974 58.8341H438.974ZM435.812 52.3748C435.259 51.2967 434.695 50.2376 434.128 49.198L433.079 49.7708C433.643 50.8029 434.2 51.8536 434.754 52.9241L435.812 52.3748V52.3748ZM432.367 46.0603C431.761 45.0081 431.149 43.9772 430.53 42.967L429.513 43.5907C430.125 44.5923 430.73 45.6149 431.336 46.6584L432.367 46.0603H432.367ZM428.613 39.9212C427.949 38.9009 427.285 37.9036 426.61 36.9294L425.632 37.609C426.296 38.5735 426.957 39.5614 427.614 40.5726L428.613 39.9212ZM424.524 33.9969C423.805 33.0151 423.078 32.0597 422.349 31.13L421.411 31.8691C422.131 32.7889 422.85 33.7343 423.566 34.7056L424.524 33.9969ZM420.072 28.336C419.287 27.4031 418.498 26.4993 417.699 25.6239L416.817 26.4283C417.602 27.2925 418.384 28.1853 419.162 29.1067L420.072 28.336ZM415.229 23.004C414.371 22.1307 413.51 21.2921 412.649 20.4846L411.832 21.3614C412.683 22.155 413.531 22.9833 414.375 23.8427L415.229 23.0041L415.229 23.004ZM409.957 18.083C409.023 17.2893 408.089 16.5339 407.152 15.8131L406.425 16.7626C407.349 17.4695 408.265 18.2146 409.186 18.9943L409.957 18.0829V18.083ZM404.232 13.6887C403.218 12.9957 402.208 12.3441 401.195 11.7343L400.579 12.76C401.572 13.3561 402.565 13.9972 403.557 14.6764L404.232 13.6887ZM398.043 9.9703C396.95 9.40539 395.86 8.88903 394.774 8.41772L394.3 9.51628C395.362 9.97371 396.428 10.4797 397.493 11.0307L398.043 9.97022L398.043 9.9703ZM391.398 7.11127C390.239 6.71277 389.08 6.36622 387.928 6.07505L387.637 7.23254C388.755 7.51667 389.882 7.85289 391.01 8.24107L391.398 7.11127H391.398ZM384.375 5.3404C383.168 5.14639 381.964 5.01472 380.77 4.93842L380.698 6.13398C381.85 6.20323 383.016 6.33498 384.192 6.52209L384.375 5.34033V5.3404ZM377.131 4.89685C375.914 4.94532 374.706 5.05621 373.513 5.23293L373.686 6.41469C374.834 6.24836 376 6.13747 377.18 6.09242L377.131 4.89685H377.131ZM369.943 5.95726C368.77 6.26224 367.611 6.62956 366.476 7.0628L366.899 8.17865C367.999 7.76286 369.113 7.40585 370.244 7.11475L369.943 5.95726ZM363.149 8.53559C362.076 9.07971 361.025 9.68618 359.997 10.3515L360.644 11.3531C361.637 10.7119 362.654 10.1262 363.688 9.60297L363.149 8.53559H363.149ZM357.043 12.4689C356.109 13.214 355.196 14.0111 354.307 14.8601L355.133 15.723C355.995 14.9017 356.88 14.1289 357.787 13.4081L357.043 12.469V12.4689ZM351.795 17.48C351.01 18.3741 350.249 19.3132 349.508 20.2974L350.463 21.0148C351.183 20.0548 351.927 19.14 352.691 18.2701L351.795 17.48H351.795ZM347.443 23.2743C346.8 24.2724 346.184 25.3086 345.589 26.3839L346.634 26.9627C347.215 25.9099 347.82 24.8963 348.446 23.9189L347.443 23.2744V23.2743ZM343.939 29.6044C343.43 30.6745 342.943 31.7776 342.479 32.9132L343.583 33.3658C344.043 32.2502 344.517 31.1677 345.018 30.1179L343.939 29.6044ZM341.202 36.2942C340.812 37.4122 340.445 38.5585 340.095 39.7323L341.237 40.0726C341.583 38.9164 341.946 37.7885 342.33 36.6885L341.202 36.2942H341.202ZM339.148 43.2161C338.86 44.3649 338.594 45.538 338.348 46.735L339.518 46.9766C339.76 45.7952 340.023 44.6377 340.306 43.5052L339.148 43.2161ZM337.691 50.2819C337.497 51.4502 337.321 52.6391 337.162 53.849L338.345 54.0032C338.501 52.8072 338.677 51.6321 338.867 50.4781L337.691 50.282V50.2819ZM336.761 57.4313C336.65 58.6102 336.553 59.8075 336.473 61.0233L337.663 61.0998C337.743 59.8966 337.837 58.7118 337.951 57.5453L336.761 57.4313ZM336.297 64.6215C336.256 65.8056 336.231 67.0061 336.224 68.2228L337.418 68.2307C337.425 67.0251 337.449 65.8357 337.487 64.6627L336.297 64.6215H336.297Z" fill="#FEFEFE"/>
<path d="M280.342 133.592C280.342 132.39 280.356 131.201 280.383 130.022L279.189 129.994C279.163 131.182 279.149 132.38 279.149 133.592H280.342ZM280.507 126.452C280.562 125.255 280.634 124.067 280.717 122.89L279.529 122.804C279.443 123.99 279.371 125.188 279.316 126.397L280.507 126.453V126.452ZM281.019 119.335C281.136 118.139 281.267 116.958 281.413 115.789L280.23 115.641C280.081 116.819 279.95 118.012 279.832 119.217L281.019 119.335L281.019 119.335ZM281.904 112.255C282.086 111.069 282.281 109.895 282.492 108.738L281.32 108.522C281.105 109.692 280.906 110.875 280.725 112.073L281.904 112.255L281.904 112.255ZM283.186 105.24C283.436 104.066 283.702 102.909 283.984 101.765L282.824 101.479C282.54 102.634 282.272 103.805 282.018 104.989L283.186 105.24ZM284.891 98.3182C285.214 97.1635 285.553 96.0254 285.907 94.903L284.771 94.5423C284.412 95.6771 284.068 96.8281 283.741 97.9949L284.891 98.3182H284.891ZM287.041 91.5255C287.44 90.3961 287.856 89.2843 288.289 88.1892L287.179 87.7498C286.742 88.8581 286.321 89.983 285.917 91.1255L287.041 91.5254V91.5255ZM289.655 84.9012C290.136 83.8043 290.631 82.7263 291.142 81.6661L290.068 81.1464C289.549 82.2196 289.047 83.3113 288.562 84.4216L289.655 84.9013V84.9012ZM292.749 78.4904C293.309 77.4341 293.888 76.3976 294.478 75.3804L293.448 74.7781C292.847 75.8091 292.264 76.8595 291.697 77.9293L292.749 78.4904H292.749ZM296.329 72.3416C296.97 71.3341 297.628 70.3475 298.303 69.3814L297.324 68.6976C296.64 69.6774 295.976 70.6775 295.325 71.6987L296.329 72.3416ZM300.395 66.5056C301.118 65.5557 301.854 64.6277 302.605 63.7204L301.689 62.9569C300.926 63.8768 300.177 64.8179 299.446 65.7813L300.395 66.5056V66.5056ZM304.932 61.0326C305.733 60.1489 306.546 59.2874 307.373 58.4484L306.525 57.608C305.685 58.4594 304.86 59.3335 304.049 60.2303L304.932 61.0326ZM309.925 55.9726C310.796 55.1623 311.683 54.3757 312.583 53.6116L311.81 52.7002C310.897 53.4754 309.999 54.2742 309.115 55.0962L309.926 55.9727L309.925 55.9726ZM315.34 51.37C316.28 50.6406 317.232 49.935 318.193 49.253L317.504 48.2768C316.529 48.9691 315.562 49.6851 314.608 50.4253L315.34 51.37V51.37ZM321.139 47.2645C322.139 46.6212 323.148 46.0027 324.17 45.408L323.57 44.3749C322.534 44.9783 321.508 45.6059 320.494 46.2584L321.139 47.2645H321.139ZM327.279 43.6877C328.331 43.1356 329.391 42.6089 330.458 42.1064L329.956 41.0241C328.869 41.5342 327.793 42.069 326.724 42.629L327.279 43.6877ZM333.716 40.6627C334.813 40.2045 335.92 39.7717 337.034 39.3638L336.622 38.2413C335.495 38.6555 334.37 39.0945 333.256 39.5592L333.716 40.6627ZM340.4 38.2108C341.535 37.8508 342.673 37.5157 343.818 37.2059L343.506 36.0519C342.344 36.3665 341.189 36.7061 340.04 37.0718L340.4 38.2108ZM347.274 36.3499C348.429 36.089 349.595 35.8533 350.757 35.6433L350.55 34.467C349.363 34.6802 348.187 34.919 347.011 35.1833L347.274 36.3498V36.3499ZM354.275 35.0871C355.452 34.927 356.631 34.7919 357.807 34.6823L357.7 33.4923C356.5 33.6032 355.306 33.7405 354.113 33.903L354.275 35.0871V35.0871ZM361.357 34.429C362.543 34.3697 363.726 34.3358 364.909 34.3275L364.903 33.1322C363.702 33.1406 362.498 33.1749 361.298 33.2351L361.357 34.429ZM368.466 34.3777C369.652 34.4197 370.835 34.4876 372.018 34.5804L372.112 33.3889C370.911 33.2943 369.711 33.2257 368.511 33.1831L368.466 34.3777ZM375.554 34.9357C376.733 35.0795 377.906 35.2486 379.075 35.443L379.269 34.2641C378.086 34.067 376.893 33.8951 375.699 33.7491L375.554 34.9358V34.9357ZM382.569 36.1032C383.728 36.3486 384.88 36.6192 386.029 36.9152L386.326 35.7578C385.16 35.4573 383.991 35.1825 382.815 34.9337L382.569 36.1029V36.1033V36.1032ZM389.45 37.8789C390.581 38.2255 391.706 38.5974 392.823 38.9937L393.224 37.8675C392.09 37.4648 390.948 37.0874 389.799 36.7357L389.45 37.8789ZM396.144 40.2591C397.237 40.7058 398.323 41.1774 399.399 41.6737L399.901 40.5883C398.808 40.0844 397.704 39.6055 396.594 39.1518L396.144 40.2591ZM402.589 43.2363C403.637 43.7814 404.675 44.3504 405.699 44.9447L406.297 43.9099C405.256 43.3066 404.204 42.7285 403.135 42.1751L402.589 43.2363ZM408.726 46.7964C409.718 47.4361 410.697 48.1005 411.656 48.7887L412.351 47.8156C411.372 47.1162 410.379 46.4416 409.372 45.7914L408.726 46.7964ZM414.492 50.9183C415.416 51.6505 416.329 52.407 417.222 53.1868L418.007 52.2853C417.097 51.4928 416.173 50.7241 415.229 49.9797L414.492 50.9182V50.9183ZM419.84 55.5859C420.691 56.4044 421.525 57.2459 422.342 58.1105L423.206 57.2899C422.38 56.4111 421.532 55.5558 420.667 54.7241L419.841 55.5859H419.84ZM424.711 60.7543C425.476 61.6512 426.223 62.5706 426.949 63.5118L427.894 62.7806C427.153 61.8238 426.396 60.8891 425.618 59.9777L424.711 60.7543ZM429.049 66.3754C429.724 67.3419 430.378 68.3296 431.011 69.3384L432.021 68.7024C431.377 67.6771 430.713 66.6734 430.028 65.6913L429.049 66.3754ZM432.823 72.3928C433.405 73.4187 433.958 74.4645 434.494 75.5305L435.56 74.9937C435.017 73.9111 434.449 72.8482 433.865 71.8061L432.823 72.3928H432.823ZM436.013 78.7437C436.49 79.8184 436.947 80.9114 437.383 82.0242L438.497 81.5878C438.054 80.4585 437.59 79.3481 437.103 78.2571L436.013 78.7437ZM438.604 85.3635C438.984 86.476 439.344 87.6061 439.68 88.7542L440.825 88.417C440.482 87.2526 440.119 86.1063 439.735 84.9772L438.604 85.3635ZM440.61 92.1882C440.891 93.329 441.153 94.4858 441.392 95.6592L442.561 95.4187C442.319 94.2293 442.053 93.0566 441.766 91.9001L440.61 92.1881L440.61 92.1882ZM442.039 99.1596C442.229 100.319 442.402 101.494 442.551 102.683L443.734 102.534C443.585 101.329 443.409 100.14 443.219 98.9652L442.039 99.1596H442.039ZM442.928 106.225C443.032 107.394 443.115 108.58 443.181 109.778L444.371 109.716C444.305 108.503 444.222 107.303 444.118 106.119L442.928 106.225V106.225ZM443.305 113.34C443.322 114.021 443.326 114.709 443.326 115.399H444.519C444.519 114.699 444.513 114.007 444.499 113.317L443.305 113.34Z" fill="#FEFEFE"/>
<path d="M63.5645 123.108C63.5645 121.906 63.5798 120.715 63.6098 119.541L62.4171 119.51C62.387 120.696 62.3713 121.894 62.3713 123.108H63.5645ZM63.7489 115.974C63.8122 114.771 63.8914 113.583 63.9858 112.414L62.7969 112.318C62.7014 113.499 62.6211 114.697 62.5575 115.911L63.7489 115.974V115.974ZM64.3263 108.863C64.4594 107.665 64.6092 106.486 64.7753 105.324L63.5943 105.157C63.4265 106.328 63.2749 107.521 63.1408 108.731L64.3263 108.863V108.863ZM65.3381 101.805C65.5481 100.618 65.7761 99.452 66.0207 98.3076L64.8542 98.0571C64.6065 99.2159 64.3757 100.395 64.163 101.596L65.3381 101.805ZM66.8306 94.8386C67.1262 93.6701 67.4411 92.5258 67.7732 91.4057L66.6299 91.065C66.2927 92.2006 65.974 93.3605 65.6737 94.5447L66.8306 94.8385V94.8386ZM68.8577 88.0168C69.25 86.8766 69.6613 85.7645 70.0909 84.6812L68.9822 84.2401C68.5456 85.3406 68.1277 86.4701 67.7296 87.6272L68.8576 88.0167L68.8577 88.0168ZM71.4817 81.4112C71.9813 80.3148 72.5004 79.2508 73.0384 78.2202L71.9812 77.6664C71.4329 78.7165 70.9043 79.7994 70.3962 80.9153L71.4817 81.4112H71.4817ZM74.7705 75.1245C75.389 74.0914 76.0279 73.0975 76.6856 72.1431L75.7038 71.4639C75.0313 72.4401 74.3785 73.4551 73.7472 74.5093L74.7705 75.1245ZM78.7927 69.2994C79.5416 68.3599 80.3107 67.4668 81.0979 66.6198L80.2252 65.8047C79.4167 66.6745 78.6275 67.5908 77.8603 68.5535L78.793 69.2993H78.7926L78.7927 69.2994ZM83.606 64.1368C84.4913 63.3318 85.3955 62.5811 86.3171 61.8852L85.5989 60.9309C84.6476 61.6489 83.7153 62.4231 82.8042 63.2517L83.606 64.1368ZM89.2246 59.9062C90.2393 59.2879 91.2702 58.7323 92.3159 58.2402L91.8088 57.1583C90.7236 57.6691 89.6546 58.2451 88.6047 58.8848L89.2246 59.9062ZM95.568 56.929C96.6824 56.5532 97.8097 56.2459 98.9475 56.0085L98.7043 54.8382C97.5195 55.0856 96.3461 55.4051 95.1875 55.7964L95.568 56.929ZM102.411 55.5046C103.197 55.4391 103.986 55.4061 104.779 55.4061C105.156 55.4061 105.534 55.4138 105.913 55.4287L105.96 54.2345C105.565 54.219 105.172 54.2109 104.779 54.2113C103.954 54.2109 103.131 54.2452 102.312 54.3135L102.411 55.5046ZM109.395 55.7759C110.533 55.9578 111.675 56.2077 112.817 56.5262L113.137 55.3747C111.952 55.0444 110.767 54.7848 109.583 54.5956L109.395 55.776V55.7759ZM116.142 57.6483C117.211 58.0721 118.278 58.5573 119.342 59.1046L119.887 58.0409C118.79 57.4767 117.687 56.9753 116.582 56.5369L116.142 57.6483ZM122.399 60.8546C123.371 61.4697 124.339 62.1379 125.301 62.8604L126.017 61.9039C125.03 61.1627 124.035 60.4765 123.035 59.844L122.399 60.8546ZM128.047 65.0856C128.917 65.8435 129.78 66.6475 130.636 67.4983L131.476 66.6496C130.602 65.7811 129.72 64.9591 128.829 64.1831L128.047 65.0855V65.0856ZM133.072 70.0715C133.843 70.9347 134.607 71.8382 135.361 72.7811L136.293 72.0336C135.525 71.074 134.747 70.1546 133.961 69.2744L133.072 70.0715H133.072ZM137.511 75.6086C138.191 76.5498 138.863 77.5257 139.526 78.536L140.523 77.8792C139.85 76.8542 139.168 75.8637 138.477 74.9076L137.511 75.6086ZM141.416 81.5495C142.014 82.549 142.605 83.5782 143.186 84.638L144.232 84.062C143.643 82.9894 143.045 81.9471 142.439 80.9347L141.416 81.5495ZM144.843 87.7902C145.369 88.8329 145.886 89.9024 146.394 90.9981L147.476 90.4946C146.962 89.3874 146.44 88.3061 145.908 87.2516L144.843 87.7902ZM147.844 94.255C148.305 95.3311 148.756 96.4307 149.199 97.5539L150.309 97.1144C149.862 95.9809 149.406 94.8708 148.941 93.7841L147.844 94.255ZM150.465 100.89C150.866 101.991 151.26 103.113 151.645 104.258L152.775 103.877C152.387 102.723 151.991 101.591 151.586 100.48L150.465 100.89ZM152.744 107.655C153.093 108.777 153.434 109.917 153.767 111.077L154.913 110.746C154.578 109.577 154.235 108.429 153.883 107.298L152.744 107.655ZM154.716 114.52C155.017 115.655 155.31 116.81 155.596 117.981L156.755 117.699C156.468 116.52 156.172 115.358 155.869 114.213L154.716 114.52V114.52ZM156.409 121.462C156.667 122.61 156.917 123.775 157.16 124.956L158.328 124.714C158.084 123.527 157.833 122.356 157.574 121.199L156.41 121.462H156.409ZM157.85 128.463C158.067 129.62 158.278 130.794 158.481 131.982L159.657 131.779C159.453 130.586 159.241 129.407 159.022 128.243L157.85 128.463V128.463ZM159.058 135.511C159.239 136.676 159.413 137.854 159.581 139.048L160.762 138.882C160.594 137.682 160.419 136.498 160.237 135.327L159.058 135.511ZM160.053 142.593C160.201 143.765 160.342 144.948 160.476 146.144L161.662 146.012C161.527 144.809 161.385 143.621 161.237 142.442L160.053 142.593H160.053ZM160.852 149.702C160.969 150.878 161.079 152.066 161.183 153.264L162.371 153.161C162.267 151.958 162.157 150.765 162.039 149.584L160.852 149.701L160.852 149.702ZM161.469 156.831C161.557 158.01 161.639 159.198 161.714 160.401L162.905 160.327C162.829 159.119 162.747 157.926 162.66 156.743L161.469 156.831V156.831ZM161.918 163.974C161.979 165.155 162.034 166.345 162.083 167.548L163.275 167.5C163.226 166.293 163.171 165.097 163.11 163.911L161.918 163.974V163.974ZM162.209 171.125C162.244 172.308 162.274 173.502 162.298 174.704L163.491 174.68C163.467 173.473 163.437 172.277 163.402 171.089L162.209 171.125L162.209 171.125ZM162.353 178.284C162.364 179.467 162.371 180.66 162.372 181.863H163.565C163.564 180.655 163.558 179.457 163.546 178.271L162.353 178.284H162.353Z" fill="#FEFEFE"/>
</g>
<defs>
<clipPath id="clip0_7_87">
<rect width="475" height="234" fill="white"/>
</clipPath>
</defs>
</svg>
